<?xml version="1.0" standalone="no"?>
<!DOCTYPE svg PUBLIC "-//W3C//DTD SVG 20010904//EN"
 "http://www.w3.org/TR/2001/REC-SVG-20010904/DTD/svg10.dtd">
<svg version="1.0" xmlns="http://www.w3.org/2000/svg"
 width="960.000000pt" height="1280.000000pt" viewBox="0 0 960.000000 1280.000000"
 preserveAspectRatio="xMidYMid meet">

<g transform="translate(0.000000,1280.000000) scale(0.100000,-0.100000)"
fill="#000000" stroke="none">
<path d="M0 6400 l0 -6400 4521 0 c4116 0 4521 1 4515 16 -4 10 -2 14 6 11 7
-2 12 -10 11 -16 -2 -6 11 -11 33 -11 24 0 33 4 28 12 -5 8 -2 9 12 3 10 -5
121 -11 247 -13 l227 -3 0 86 c0 55 -4 84 -10 80 -5 -3 -10 -1 -10 4 0 6 5 11
10 11 7 0 10 184 10 531 0 471 -2 530 -15 519 -19 -16 -19 0 0 36 22 43 22
884 0 884 -8 0 -15 5 -15 10 0 6 -7 10 -15 10 -8 0 -15 4 -15 8 0 5 14 7 30 6
16 -1 30 2 30 7 0 5 -5 9 -11 9 -6 0 -8 7 -5 15 3 8 9 22 12 30 5 13 2 14 -21
5 -34 -13 -34 -13 -28 9 2 10 16 24 30 30 19 9 24 17 21 39 -2 21 -9 28 -30
30 -34 4 -41 42 -8 42 11 0 20 7 20 15 0 8 5 15 10 15 16 0 12 90 -5 107 -14
14 -14 16 0 27 12 9 15 24 13 56 -3 43 -4 44 -11 15 -11 -41 -21 -58 -37 -63
-9 -3 -11 1 -7 13 4 9 4 22 0 28 -10 17 -11 128 -2 154 5 13 14 20 21 18 7 -3
19 4 26 15 14 22 16 20 -48 37 l-35 9 22 19 c12 10 20 22 17 27 -3 4 2 8 10 8
9 0 16 -4 16 -8 0 -5 7 -17 15 -28 13 -17 15 3 14 189 0 137 -4 207 -11 207
-7 0 -7 4 0 13 8 9 11 128 11 369 0 348 0 356 -20 351 -25 -7 -25 9 1 32 18
16 19 31 19 245 -1 207 -2 228 -17 225 -10 -2 -21 -4 -25 -4 -5 -1 -5 -10 -2
-21 3 -11 2 -20 -4 -20 -17 0 -22 17 -11 45 9 23 15 26 36 21 l25 -7 -2 121
c-1 95 -4 118 -13 110 -7 -5 -16 -7 -19 -3 -12 11 -7 21 13 26 20 5 20 12 20
1088 0 772 -4 1086 -11 1096 -8 9 -8 13 0 13 8 0 11 156 11 571 0 507 -2 570
-15 559 -9 -7 -15 -8 -15 -2 0 5 7 12 15 16 8 3 15 18 15 33 0 23 -2 25 -11
13 -9 -12 -9 -11 -3 5 4 11 9 85 12 164 3 113 1 145 -10 152 -10 7 -10 9 0 9
17 0 17 261 0 278 -18 18 -26 15 -30 -10 -3 -20 -4 -20 -10 6 -5 23 0 34 23
57 l29 28 0 155 c0 134 -2 155 -15 150 -8 -4 -15 -1 -15 5 0 6 -9 11 -19 11
-26 0 -33 23 -25 81 5 36 11 49 23 49 21 0 37 -11 43 -30 3 -8 6 42 7 112 1
86 -2 134 -11 147 -9 15 -9 25 0 46 18 38 17 2461 -1 2468 -9 4 -9 6 1 6 9 1
12 36 12 140 0 134 -1 139 -20 134 -11 -3 -20 0 -20 6 0 6 9 11 20 11 17 0 20
7 20 39 0 22 -6 42 -12 45 -10 5 -10 7 0 12 9 4 12 52 12 190 l0 184 -4800 0
-4800 0 0 -6400z m9437 4278 c-3 -8 -6 -5 -6 6 -1 11 2 17 5 13 3 -3 4 -12 1
-19z m-3 -103 c3 -9 0 -15 -9 -15 -8 0 -15 7 -15 15 0 8 4 15 9 15 5 0 11 -7
15 -15z m150 -10 c3 -8 1 -15 -4 -15 -6 0 -10 7 -10 15 0 8 2 15 4 15 2 0 6
-7 10 -15z m-244 -177 c0 -7 -5 -20 -10 -28 -7 -11 -12 -12 -21 -3 -9 9 -8 15
2 27 17 19 29 20 29 4z m127 -130 c-3 -7 -5 -2 -5 12 0 14 2 19 5 13 2 -7 2
-19 0 -25z m-501 -8 c0 -11 -4 -20 -8 -20 -10 0 -11 24 -1 33 9 9 9 10 9 -13z
m104 -15 c0 -8 -4 -15 -9 -15 -5 0 -13 -9 -16 -20 -3 -11 -14 -20 -23 -19 -11
0 -12 3 -4 6 6 2 12 12 12 22 0 18 18 41 32 41 4 0 8 -7 8 -15z m353 -10 c-5
-16 -33 -21 -33 -7 0 13 22 32 31 26 5 -2 6 -11 2 -19z m-357 -76 c-18 -15
-22 -15 -24 -3 -6 24 17 46 32 31 10 -9 9 -15 -8 -28z m329 -9 c3 -5 1 -10 -4
-10 -6 0 -11 5 -11 10 0 6 2 10 4 10 3 0 8 -4 11 -10z m45 -55 c0 -12 3 -36 6
-52 6 -30 -9 -56 -38 -65 -10 -4 -10 -8 1 -21 7 -10 9 -17 3 -17 -6 0 -13 6
-15 13 -4 9 -8 8 -16 -3 -5 -8 -13 -12 -16 -8 -4 4 7 21 24 39 17 17 31 35 31
38 0 3 -5 23 -9 45 -5 21 -7 44 -4 52 7 20 33 4 33 -21z m-4425 -15 c96 -12
134 -42 135 -106 0 -23 32 -43 38 -25 5 14 32 14 32 1 0 -5 -4 -10 -8 -10 -4
0 -6 -16 -4 -35 3 -21 -2 -45 -11 -58 -12 -18 -16 -54 -16 -143 0 -65 -5 -134
-10 -151 -11 -39 2 -52 23 -22 8 12 19 18 24 15 5 -3 12 9 15 27 5 32 -2 53
-10 29 -3 -6 -9 -10 -14 -6 -5 3 -4 14 2 26 11 21 12 21 25 3 8 -11 14 -43 14
-75 l0 -56 -82 -22 c-46 -12 -92 -24 -104 -26 -11 -1 -31 -13 -42 -24 -12 -12
-26 -22 -31 -22 -16 0 -20 -64 -5 -87 12 -19 11 -23 -9 -35 -24 -16 -181 -39
-235 -35 -30 2 -33 4 -28 29 6 28 -21 49 -35 27 -5 -9 -18 -2 -41 22 -38 40
-91 79 -107 79 -6 0 -11 -7 -11 -15 0 -8 -7 -15 -16 -15 -12 0 -14 4 -7 13 25
31 18 147 -9 147 -4 0 -8 16 -8 35 0 21 -5 35 -12 35 -9 0 -9 3 -1 11 19 19
33 0 33 -42 0 -21 4 -39 8 -39 11 0 34 -68 27 -80 -3 -5 7 -15 22 -22 15 -7
31 -17 35 -23 5 -6 8 -3 8 7 0 9 -9 19 -19 23 -20 6 -20 6 0 26 23 23 29 24
29 4 0 -8 5 -15 10 -15 6 0 10 7 10 15 0 8 6 12 14 9 9 -4 20 6 30 25 20 39
20 41 -5 41 -16 0 -19 4 -13 23 9 30 7 29 58 32 49 4 97 23 104 43 4 14 -41
17 -67 3 -27 -15 -144 -17 -149 -3 -2 7 6 12 18 12 12 0 20 5 18 12 -6 17 -72
52 -76 40 -1 -5 -9 -18 -17 -28 -13 -18 -14 -18 -24 9 -14 35 -14 57 -1 57 6
0 10 -11 10 -25 0 -14 4 -25 9 -25 9 0 22 51 21 88 0 17 8 26 30 34 37 12 38
24 3 60 -15 15 -22 28 -15 28 6 0 16 -8 21 -18 5 -10 21 -24 34 -31 14 -7 30
-24 36 -38 14 -31 14 -33 -6 -33 -15 0 -16 -2 -3 -10 8 -5 11 -12 8 -15 -4 -4
-17 0 -30 9 -29 21 -70 22 -62 2 5 -14 58 -33 77 -28 4 1 10 -5 13 -13 9 -22
24 -18 24 5 0 34 20 22 21 -12 1 -31 1 -32 9 -8 8 24 8 24 9 3 1 -13 7 -23 15
-23 13 0 18 15 31 99 7 41 13 53 26 46 5 -4 9 -2 9 4 0 5 -6 14 -14 18 -7 4
-16 22 -19 38 -3 17 -9 43 -13 59 -5 21 -4 27 5 22 7 -4 11 0 11 12 0 28 26
46 66 46 21 0 34 5 34 13 0 7 6 13 14 13 7 0 16 10 19 21 4 16 10 20 24 14 10
-4 45 -11 78 -15z m3985 10 c0 -5 -5 -10 -11 -10 -5 0 -7 5 -4 10 3 6 8 10 11
10 2 0 4 -4 4 -10z m-3630 -31 c0 -5 6 -9 14 -9 17 0 29 -58 20 -94 -4 -16 -2
-26 5 -26 6 0 8 -11 5 -29 -4 -19 -1 -38 9 -51 15 -21 15 -20 10 19 -7 54 16
56 41 4 20 -41 30 -161 15 -179 -5 -6 -4 -27 3 -50 10 -36 11 -37 19 -16 5 12
11 22 15 22 3 0 4 -7 0 -15 -3 -9 0 -15 9 -15 20 0 19 -5 -7 -33 -36 -38 -58
-46 -115 -40 -45 5 -53 3 -53 -11 0 -9 -7 -16 -16 -16 -14 0 -15 7 -10 43 4
23 9 62 12 86 2 24 6 47 9 51 2 3 7 56 11 116 3 60 8 110 9 112 2 2 -5 22 -16
45 -23 52 -26 109 -4 101 8 -4 15 -10 15 -15z m3630 1 c0 -5 -2 -10 -4 -10 -3
0 -8 5 -11 10 -3 6 -1 10 4 10 6 0 11 -4 11 -10z m-4882 -30 c-1 -16 -6 -30
-10 -30 -9 0 -10 22 -2 44 10 25 15 19 12 -14z m5262 5 c0 -14 -6 -25 -12 -25
-7 0 -13 11 -13 25 0 14 6 25 13 25 6 0 12 -11 12 -25z m-470 -20 c0 -8 6 -15
13 -15 8 0 7 -3 -3 -10 -9 -6 -17 -5 -22 3 -11 17 -10 37 2 37 6 0 10 -7 10
-15z m-2389 -102 c17 -38 39 -86 49 -108 25 -53 36 -100 22 -91 -6 3 -14 21
-17 39 -4 17 -11 37 -15 42 -4 6 -11 21 -15 35 -4 14 -21 52 -36 84 -31 63
-32 66 -24 66 3 0 19 -30 36 -67z m2539 29 c0 -11 -34 -42 -47 -42 -17 0 -17
7 4 34 15 20 43 25 43 8z m-150 -2 c0 -5 -4 -10 -10 -10 -5 0 -10 5 -10 10 0
6 5 10 10 10 6 0 10 -4 10 -10z m-4813 -22 c-3 -8 -6 -5 -6 6 -1 11 2 17 5 13
3 -3 4 -12 1 -19z m5403 8 c0 -2 3 -11 6 -20 9 -23 -9 -20 -24 4 -10 17 -10
20 3 20 8 0 15 -2 15 -4z m-2930 -41 c0 -5 -5 -3 -10 5 -5 8 -10 20 -10 25 0
6 5 3 10 -5 5 -8 10 -19 10 -25z m2861 2 c-1 -12 -15 -9 -19 4 -3 6 1 10 8 8
6 -3 11 -8 11 -12z m63 -33 c18 -7 12 -24 -8 -24 -7 0 -13 7 -13 15 0 17 0 17
21 9z m-4943 -57 c-5 -7 -7 -24 -4 -37 4 -16 3 -21 -5 -16 -15 9 -15 41 0 69
7 14 13 17 16 9 2 -7 -1 -18 -7 -25z m4859 -38 c0 -10 -4 -19 -10 -19 -5 0
-10 12 -10 26 0 14 4 23 10 19 6 -3 10 -15 10 -26z m-3877 -59 c-3 -17 -8 -28
-11 -26 -7 8 -11 79 -4 90 10 17 22 -33 15 -64z m3695 9 c-3 -18 -5 -19 -22
-6 -16 12 -17 17 -6 37 11 21 13 21 22 6 5 -9 8 -26 6 -37z m-5065 26 c-3 -9
-8 -14 -10 -11 -3 3 -2 9 2 15 9 16 15 13 8 -4z m5024 9 c-3 -3 -12 -4 -19 -1
-8 3 -5 6 6 6 11 1 17 -2 13 -5z m-14 -31 c-7 -2 -19 -2 -25 0 -7 3 -2 5 12 5
14 0 19 -2 13 -5z m137 -27 c0 -3 -4 -8 -10 -11 -5 -3 -10 -1 -10 4 0 6 5 11
10 11 6 0 10 -2 10 -4z m-50 -43 c0 -7 -4 -13 -10 -13 -5 0 -10 12 -10 28 0
21 2 24 10 12 5 -8 10 -21 10 -27z m-140 17 c0 -5 -5 -10 -11 -10 -5 0 -7 5
-4 10 3 6 8 10 11 10 2 0 4 -4 4 -10z m-2546 -81 c-2 -4 0 -9 6 -11 5 -1 12
-23 15 -48 3 -25 7 -56 10 -70 10 -49 13 -190 4 -190 -5 0 -9 -7 -9 -15 0 -7
-8 -19 -17 -24 -12 -7 -13 -11 -5 -11 10 0 9 -4 -3 -16 -23 -24 -30 -10 -16
34 15 44 19 209 9 337 -5 58 -4 78 1 55 5 -19 7 -38 5 -41z m-2007 29 c-9 -6
-8 -8 3 -8 11 0 11 -3 2 -12 -17 -17 -15 -45 3 -52 8 -3 15 -15 15 -26 0 -22
-15 -27 -23 -7 -3 7 -6 4 -6 -6 -1 -10 -5 -15 -11 -12 -14 8 -13 111 1 137 9
16 13 18 20 7 5 -8 3 -16 -4 -21z m4757 -32 c-3 -14 -10 -23 -15 -20 -13 8
-11 42 4 47 17 6 19 3 11 -27z m-101 0 c3 -7 -3 -20 -14 -29 -10 -9 -19 -14
-19 -11 0 4 -6 1 -14 -5 -10 -8 -16 -9 -21 -1 -9 15 3 30 26 30 10 0 19 7 19
15 0 19 16 20 23 1z m-3698 -66 c-3 -5 -17 -10 -30 -10 -13 0 -27 -4 -30 -10
-8 -13 -25 -13 -25 -1 0 6 19 14 43 19 23 6 43 10 45 11 2 1 0 -3 -3 -9z m715
-21 c15 -28 29 -118 19 -125 -4 -2 -11 12 -15 33 -3 21 -10 55 -14 76 -9 42
-6 47 10 16z m3080 11 c0 -5 -5 -10 -11 -10 -5 0 -7 5 -4 10 3 6 8 10 11 10 2
0 4 -4 4 -10z m-3893 -6 c-3 -3 -12 -4 -19 -1 -8 3 -5 6 6 6 11 1 17 -2 13 -5z
m3949 -49 c-4 -24 -16 -30 -16 -7 0 12 4 22 9 22 5 0 8 -7 7 -15z m208 -11 c7
-18 -10 -44 -28 -44 -6 0 -3 5 7 11 13 8 15 14 7 30 -6 11 -7 19 -1 19 5 0 12
-7 15 -16z m-469 -14 c3 -5 1 -10 -4 -10 -6 0 -11 5 -11 10 0 6 2 10 4 10 3 0
8 -4 11 -10z m425 -41 c0 -14 5 -19 14 -16 9 4 16 -3 19 -19 6 -32 -20 -45
-39 -19 -16 22 -19 75 -4 75 6 0 10 -9 10 -21z m-4513 -21 c-3 -8 -6 -5 -6 6
-1 11 2 17 5 13 3 -3 4 -12 1 -19z m4018 -17 c3 -5 1 -12 -5 -16 -5 -3 -10 1
-10 9 0 18 6 21 15 7z m375 5 c0 -20 -14 -33 -31 -29 -17 5 -24 -5 -20 -30 1
-5 -3 -6 -8 -3 -6 4 -6 17 1 36 7 22 16 30 34 30 13 0 24 -2 24 -4z m-4350
-31 c0 -28 -15 -34 -24 -9 -10 25 -7 34 9 34 9 0 15 -9 15 -25z m530 1 c56
-12 80 -20 80 -28 0 -5 -5 -6 -11 -2 -7 4 -62 7 -122 8 -85 1 -111 4 -115 15
-3 9 0 12 10 9 8 -4 21 -3 28 2 11 7 85 4 130 -4z m-176 -12 c4 -10 1 -14 -6
-12 -15 5 -23 28 -10 28 5 0 13 -7 16 -16z m621 -13 c-8 -14 -45 -14 -45 0 0
6 9 8 20 4 13 -4 20 -2 20 6 0 7 3 10 6 6 3 -3 3 -10 -1 -16z m-1988 -63 c-3
-8 -6 -5 -6 6 -1 11 2 17 5 13 3 -3 4 -12 1 -19z m5230 0 c-3 -8 -6 -5 -6 6
-1 11 2 17 5 13 3 -3 4 -12 1 -19z m-4260 1 c18 -7 23 -13 15 -18 -6 -4 -20
-38 -29 -77 -18 -71 -18 -70 -68 -65 -15 2 -59 43 -79 74 -10 15 -23 27 -30
27 -6 0 -16 8 -23 19 -11 17 -7 20 45 30 31 6 73 13 92 14 19 2 38 5 42 5 4 1
19 -3 35 -9z m919 -16 c-10 -10 -19 5 -10 18 6 11 8 11 12 0 2 -7 1 -15 -2
-18z m44 11 c0 -8 -4 -12 -10 -9 -5 3 -10 10 -10 16 0 5 5 9 10 9 6 0 10 -7
10 -16z m-1944 -59 c-9 -9 -16 -13 -16 -8 0 12 22 34 28 28 2 -2 -3 -11 -12
-20z m-46 -8 c0 -7 -7 -22 -15 -33 -14 -18 -14 -17 -15 14 0 22 5 32 15 32 8
0 15 -6 15 -13z m1877 -2 c7 -21 -6 -33 -16 -16 -5 7 -14 10 -20 7 -6 -4 -11
-3 -11 3 0 9 15 18 33 20 4 1 10 -6 14 -14z m-1113 -39 c43 -51 47 -67 9 -31
-16 14 -43 35 -60 46 -39 25 -41 29 -9 29 17 0 36 -14 60 -44z m4796 24 c0 -5
-4 -10 -10 -10 -5 0 -10 5 -10 10 0 6 5 10 10 10 6 0 10 -4 10 -10z m-5246 -8
c2 -4 -5 -9 -17 -9 -17 -2 -19 0 -7 7 18 12 18 12 24 2z m5196 -22 c0 -5 -7
-7 -15 -4 -8 4 -12 10 -9 15 6 11 24 2 24 -11z m-3593 -8 c-3 -4 9 -7 26 -7
27 0 32 -4 34 -27 1 -20 -2 -25 -13 -21 -19 7 -19 -46 0 -61 7 -6 21 -33 29
-59 15 -43 15 -53 2 -84 -8 -19 -17 -58 -21 -86 -4 -29 -13 -60 -21 -69 -8 -9
-17 -36 -20 -60 -3 -24 -12 -47 -19 -51 -20 -11 -18 -20 11 -51 27 -29 26 -33
-23 -79 -12 -11 -21 -26 -18 -33 2 -6 -2 -21 -10 -33 -8 -11 -14 -26 -12 -33
2 -7 -10 -34 -25 -60 -15 -26 -30 -62 -34 -80 -3 -18 -10 -35 -14 -38 -4 -3
-10 -22 -14 -43 -10 -53 10 -47 26 8 12 41 14 43 23 23 l9 -23 7 25 c7 23 8
22 16 -15 5 -22 9 -44 9 -50 0 -5 4 -13 9 -17 5 -3 4 -19 -4 -38 -9 -23 -15
-28 -21 -18 -6 9 -9 8 -9 -7 0 -15 -2 -17 -9 -6 -5 7 -14 10 -20 7 -6 -4 -9
-11 -6 -16 3 -5 0 -12 -6 -16 -8 -4 -9 -3 -5 4 4 7 3 12 -2 12 -12 0 -37 -30
-26 -30 5 -1 -3 -7 -17 -15 -36 -19 -89 -28 -89 -15 0 6 -5 8 -10 5 -6 -4 -7
-11 -4 -17 5 -7 -2 -9 -19 -6 -19 4 -24 1 -20 -9 3 -8 2 -13 -3 -12 -14 3 -64
-19 -64 -29 0 -4 6 -14 13 -21 10 -11 9 -13 -5 -8 -10 4 -18 2 -18 -3 0 -5
-21 -18 -47 -31 -27 -12 -60 -28 -76 -36 -15 -8 -32 -11 -39 -7 -6 4 -8 3 -5
-2 3 -6 -7 -15 -24 -21 -23 -9 -29 -9 -29 2 0 7 -7 16 -16 19 -8 3 -12 2 -9
-4 7 -12 -37 -30 -68 -29 -22 1 -22 1 1 7 26 8 26 28 0 25 -10 -2 -18 4 -18
11 0 8 -10 18 -22 22 -84 25 -72 103 17 111 182 15 190 18 206 60 5 13 15 23
24 23 8 0 15 9 15 20 0 11 3 20 8 20 4 0 7 29 7 66 0 43 5 68 14 73 8 5 11 17
7 28 -5 15 -18 22 -55 26 -27 3 -58 10 -68 15 -64 33 -210 52 -219 29 -4 -12
-99 -15 -111 -3 -4 3 -14 6 -24 6 -36 0 -37 164 -1 177 10 4 24 14 32 24 17
18 74 35 127 38 18 1 42 5 55 10 20 7 19 9 -15 15 -42 8 -47 24 -21 76 11 21
19 28 24 20 4 -6 10 -11 14 -11 29 4 43 -3 54 -29 14 -30 3 -70 -18 -70 -16 0
-11 -17 7 -24 10 -4 25 1 37 14 17 17 21 33 20 84 l-1 63 44 -2 c25 -1 48 -6
51 -12 7 -10 146 -15 170 -6 6 3 12 13 13 22 0 13 2 12 8 -3 5 -14 10 -16 15
-8 4 7 11 10 16 7 14 -9 118 23 150 45 32 23 74 92 91 151 9 30 9 59 0 125 -9
66 -9 89 0 100 9 11 8 14 -2 15 -8 0 -5 4 6 9 25 11 48 12 42 2z m-1934 -15
c3 -8 1 -35 -4 -61 -5 -27 -6 -66 -2 -89 5 -31 3 -39 -8 -35 -14 5 -15 27 -11
151 2 45 14 62 25 34z m5523 -12 c-3 -8 0 -15 7 -15 8 0 7 -4 -3 -9 -21 -14
-32 -3 -20 20 13 22 25 26 16 4z m-5469 -52 c-3 -10 -5 -2 -5 17 0 19 2 27 5
18 2 -10 2 -26 0 -35z m972 -14 c7 -22 25 -58 40 -82 16 -23 30 -49 31 -57 6
-38 -2 -72 -20 -90 -16 -16 -17 -20 -5 -20 10 0 15 -11 15 -35 0 -23 8 -42 24
-57 31 -30 48 -135 20 -124 -10 4 -29 -3 -48 -18 -49 -37 -156 -31 -156 8 0 8
-7 19 -15 26 -14 12 -14 15 1 31 11 12 19 46 24 101 8 89 4 286 -6 330 -5 23
-3 27 22 30 48 6 61 -2 73 -43z m4186 41 c4 -6 -1 -7 -11 -3 -14 5 -15 3 -5
-15 6 -11 16 -22 22 -24 7 -2 10 -11 7 -18 -3 -11 -13 -5 -36 20 -18 19 -32
37 -32 40 0 10 49 10 55 0z m-314 -54 c12 -13 11 -26 -1 -26 -14 0 -29 41 -21
60 4 12 6 10 9 -5 2 -11 8 -24 13 -29z m646 4 c-3 -39 -17 -39 -17 0 0 17 4
30 10 30 5 0 8 -13 7 -30z m-420 -22 c-3 -8 -6 -5 -6 6 -1 11 2 17 5 13 3 -3
4 -12 1 -19z m-37 3 c0 -14 -18 -23 -30 -16 -6 4 -8 11 -5 16 8 12 35 12 35 0z
m-2978 -68 c5 -7 7 -17 3 -23 -3 -5 -2 -10 4 -10 5 0 13 5 16 10 13 21 21 9
17 -25 -2 -19 -8 -35 -13 -35 -5 0 -6 -13 -3 -30 4 -16 1 -44 -6 -62 -6 -18
-18 -58 -26 -88 -8 -30 -18 -64 -23 -75 -5 -11 -12 -28 -15 -37 -3 -10 -11
-18 -17 -18 -8 0 -10 17 -5 58 9 89 11 101 24 114 7 7 12 18 12 25 0 7 7 13
16 13 13 0 15 7 11 30 -4 16 -2 32 3 35 6 3 10 18 10 32 0 18 -4 24 -15 19
-10 -3 -15 1 -15 12 0 10 -5 23 -11 29 -7 7 -8 19 -4 30 5 10 9 21 10 26 6 20
8 21 12 2 3 -11 10 -25 15 -32z m3122 -22 c-4 -22 -14 -47 -24 -56 -26 -23
-33 -2 -10 25 14 16 17 27 10 34 -11 11 -14 49 -4 59 4 3 13 0 20 -8 10 -10
12 -26 8 -54z m296 29 c0 -16 -4 -30 -9 -30 -12 0 -19 21 -13 43 7 28 22 20
22 -13z m-5457 13 c2 6 8 9 12 5 11 -10 -4 -28 -25 -28 -10 0 -21 -6 -23 -12
-3 -7 -6 0 -6 15 -1 24 1 26 18 17 14 -7 21 -6 24 3z m5277 -12 c0 -11 6 -22
13 -24 6 -3 1 -6 -13 -6 -20 -1 -22 -3 -10 -11 12 -8 13 -11 1 -19 -9 -6 -10
-10 -2 -12 6 -2 2 -10 -10 -17 -19 -12 -20 -11 -18 20 2 18 7 38 11 44 5 7 8
16 7 20 -3 16 1 24 11 24 6 0 10 -9 10 -19z m-170 1 c0 -18 -28 -45 -38 -38
-17 10 -15 26 3 20 9 -4 15 0 15 10 0 9 5 16 10 16 6 0 10 -4 10 -8z m117 -22
c-2 -24 -21 -21 -25 3 -2 10 3 17 12 17 9 0 14 -8 13 -20z m-173 -6 c3 -9 6
-25 6 -36 0 -20 1 -21 20 -3 19 17 20 17 20 -1 0 -10 -7 -27 -14 -37 -13 -17
-15 -16 -30 14 -9 18 -16 38 -16 46 0 7 -4 13 -10 13 -5 0 -10 5 -10 10 0 16
27 11 34 -6z m146 -19 c0 -8 5 -15 10 -15 6 0 10 -12 10 -26 0 -16 -5 -24 -12
-21 -7 2 -12 11 -10 21 2 9 -2 16 -8 16 -5 0 -10 9 -10 20 0 11 5 20 10 20 6
0 10 -7 10 -15z m-3205 -67 c-16 -12 -30 -9 -18 3 6 6 9 18 6 25 -3 8 -2 22 3
32 6 13 9 9 13 -18 4 -20 2 -38 -4 -42z m563 50 c-3 -7 -15 -15 -28 -16 -21
-3 -22 -2 -11 12 16 19 44 21 39 4z m2912 -4 c0 -8 -5 -12 -10 -9 -6 4 -8 11
-5 16 9 14 15 11 15 -7z m-2800 -73 c0 -23 -23 4 -27 31 -4 22 -3 22 11 3 9
-11 16 -27 16 -34z m2497 -27 c4 -65 4 -66 -19 -59 -14 4 -18 3 -11 -2 12 -9
14 -73 2 -73 -4 0 -9 12 -12 28 -3 15 -9 40 -13 56 -6 25 -4 28 10 23 18 -7
22 8 5 18 -7 5 -5 13 7 26 9 10 14 25 11 33 -6 14 2 30 11 21 3 -2 7 -34 9
-71z m298 46 c3 -5 2 -10 -4 -10 -5 0 -13 5 -16 10 -3 6 -2 10 4 10 5 0 13 -4
16 -10z m-5518 -32 c-3 -8 -6 -5 -6 6 -1 11 2 17 5 13 3 -3 4 -12 1 -19z
m2037 -36 c-4 -18 -13 -32 -20 -32 -14 0 -13 22 2 69 9 28 24 -5 18 -37z
m3322 2 c18 -14 18 -14 -6 -3 -31 14 -36 19 -24 19 6 0 19 -7 30 -16z m-3725
-27 c-16 -16 -26 0 -10 19 9 11 15 12 17 4 2 -6 -1 -17 -7 -23z m796 -13 c1
-5 -2 -16 -7 -24 -12 -20 -35 2 -26 25 6 17 27 16 33 -1z m2696 -43 c-9 -11
-33 27 -27 43 6 16 9 14 19 -10 7 -16 10 -31 8 -33z m-4302 -17 c-2 -21 -4
-80 -5 -131 0 -50 -4 -95 -8 -99 -5 -4 -8 -15 -8 -23 0 -9 -8 -24 -17 -33 -10
-9 -29 -34 -42 -56 -21 -36 -26 -39 -36 -25 -11 14 -14 14 -33 -5 -12 -12 -19
-22 -15 -22 3 0 4 -3 0 -6 -14 -14 -59 62 -73 121 -4 16 -13 36 -21 43 -7 7
-13 20 -13 28 0 8 -4 12 -10 9 -5 -3 -10 -2 -10 4 0 5 -2 16 -6 24 -4 11 11
18 58 30 136 34 180 70 212 170 11 34 31 13 27 -29z m4746 -1 c0 -21 -5 -44
-10 -50 -5 -7 -6 -13 -3 -13 4 0 2 -9 -5 -21 -8 -15 -8 -24 0 -32 14 -14 14
-27 1 -27 -6 0 -15 11 -20 24 -5 13 -14 27 -19 31 -6 3 -11 11 -11 17 0 7 5 6
14 -1 20 -17 29 2 21 46 -5 26 -3 33 6 27 9 -5 10 -2 6 10 -4 10 -4 22 -1 27
11 18 22 -2 21 -38z m-3087 23 c0 -2 -7 -6 -15 -10 -8 -3 -15 -1 -15 4 0 6 7
10 15 10 8 0 15 -2 15 -4z m2467 -83 c-3 -10 -5 -4 -5 12 0 17 2 24 5 18 2 -7
2 -21 0 -30z m250 2 c-4 -8 -12 -15 -19 -14 -10 0 -10 2 0 6 6 2 12 12 12 21
0 8 3 13 6 9 4 -3 4 -13 1 -22z m-3236 -48 c-10 -9 -11 -8 -5 6 3 10 9 15 12
12 3 -3 0 -11 -7 -18z m-1636 3 c3 -5 -1 -10 -9 -10 -9 0 -16 5 -16 10 0 6 4
10 9 10 6 0 13 -4 16 -10z m4831 1 c8 6 14 6 18 0 7 -11 -29 -25 -44 -16 -5 3
-10 11 -10 18 0 8 3 8 12 -1 8 -8 15 -8 24 -1z m203 -53 c0 -13 -3 -17 -6 -10
-2 6 -13 12 -24 12 -10 0 -19 5 -19 10 0 6 11 10 25 10 19 0 25 -5 24 -22z
m-319 -19 c0 -6 -4 -7 -10 -4 -5 3 -10 11 -10 16 0 6 5 7 10 4 6 -3 10 -11 10
-16z m-120 1 c0 -5 -4 -10 -10 -10 -5 0 -10 5 -10 10 0 6 5 10 10 10 6 0 10
-4 10 -10z m352 -15 c-2 -14 1 -32 8 -40 7 -9 10 -18 6 -22 -3 -3 -6 -1 -6 6
0 7 -4 9 -10 6 -11 -7 -14 57 -3 68 10 11 11 9 5 -18z m-69 2 c3 -8 1 -20 -4
-28 -5 -9 -9 -9 -9 -2 0 6 -3 18 -6 27 -3 9 -2 16 4 16 5 0 12 -6 15 -13z
m-223 -7 c0 -5 -4 -10 -10 -10 -5 0 -10 5 -10 10 0 6 5 10 10 10 6 0 10 -4 10
-10z m-25 -30 c-3 -5 -2 -10 4 -10 5 0 12 6 14 13 3 7 6 5 6 -5 1 -18 -15 -23
-43 -12 -23 9 -20 24 5 24 11 0 17 -4 14 -10z m81 -47 c-4 -4 -11 -1 -16 7
-16 25 -11 35 7 17 9 -9 13 -20 9 -24z m146 -45 c3 -7 13 -13 23 -13 10 0 20
-6 23 -14 3 -10 0 -12 -12 -8 -15 6 -22 -9 -17 -37 1 -5 -5 -3 -14 4 -11 9
-13 15 -5 20 8 5 7 9 -4 13 -9 4 -16 16 -16 27 0 22 16 27 22 8z m-5255 -18
c14 -11 32 -20 39 -20 8 0 14 -3 14 -7 0 -5 -27 -8 -60 -9 -55 0 -60 1 -60 21
0 41 27 47 67 15z m5113 0 c0 -11 -4 -20 -8 -20 -4 0 -8 9 -8 20 0 11 4 20 8
20 4 0 8 -9 8 -20z m-33 -26 c-9 -9 -28 6 -21 18 4 6 10 6 17 -1 6 -6 8 -13 4
-17z m283 -57 c0 -5 -4 -5 -10 -2 -5 3 -10 14 -10 23 0 15 2 15 10 2 5 -8 10
-19 10 -23z m-44 15 c7 -4 14 -18 15 -32 3 -21 0 -25 -20 -22 -20 2 -22 -1
-17 -23 6 -24 -7 -35 -18 -16 -3 5 -16 7 -29 3 -21 -5 -21 -4 -4 15 9 11 17
25 17 32 0 37 30 60 56 43z m66 -64 c-8 -8 -9 -4 -5 13 4 13 8 18 11 10 2 -7
-1 -18 -6 -23z m-32 -9 c0 -5 -4 -7 -10 -4 -5 3 -10 -1 -10 -9 0 -9 -4 -16
-10 -16 -14 0 -13 13 2 28 15 15 28 15 28 1z m70 -15 c0 -8 -4 -12 -10 -9 -5
3 -10 13 -10 21 0 8 5 12 10 9 6 -3 10 -13 10 -21z m-347 -14 c3 -11 1 -20 -4
-20 -5 0 -9 9 -9 20 0 11 2 20 4 20 2 0 6 -9 9 -20z m111 -47 c5 -14 3 -23 -4
-23 -14 0 -29 40 -22 59 6 15 14 4 26 -36z m-149 12 c21 0 55 -27 55 -44 0
-11 19 -9 38 3 19 11 27 -1 13 -18 -7 -8 -10 -20 -6 -26 3 -5 -1 -10 -10 -10
-9 0 -13 5 -10 10 4 6 -7 10 -24 10 -25 0 -31 4 -31 21 0 12 -5 19 -12 17 -12
-4 -58 42 -58 58 0 5 6 2 13 -6 7 -9 21 -15 32 -15z m405 -10 c0 -14 -4 -25
-10 -25 -11 0 -14 33 -3 43 11 11 13 8 13 -18z m-180 0 c0 -8 -2 -15 -4 -15
-2 0 -6 7 -10 15 -3 8 -1 15 4 15 6 0 10 -7 10 -15z m-3872 -17 c-2 -15 -13
-25 -36 -32 -42 -12 -49 -4 -20 27 30 33 61 35 56 5z m3966 -58 c-6 -6 -10 -2
-11 12 -2 16 1 18 10 9 7 -7 8 -14 1 -21z m76 14 c0 -9 -7 -14 -17 -12 -25 5
-28 28 -4 28 12 0 21 -6 21 -16z m-235 -22 c-3 -3 -11 0 -18 7 -9 10 -8 11 6
5 10 -3 15 -9 12 -12z m35 -38 c0 -8 -4 -12 -10 -9 -5 3 -10 13 -10 21 0 8 5
12 10 9 6 -3 10 -13 10 -21z m-2955 -24 c16 -16 25 -33 21 -37 -6 -7 -66 49
-66 61 0 14 18 4 45 -24z m3212 -2 c-3 -8 -6 -5 -6 6 -1 11 2 17 5 13 3 -3 4
-12 1 -19z m-157 2 c0 -5 -5 -10 -11 -10 -5 0 -7 5 -4 10 3 6 8 10 11 10 2 0
4 -4 4 -10z m23 -53 c-3 -4 8 -5 24 -1 25 7 27 6 14 -9 -16 -20 -8 -22 18 -5
16 10 17 14 5 25 -16 16 -18 33 -5 33 5 0 13 -9 16 -20 3 -11 11 -20 16 -20 5
0 1 -9 -8 -20 -21 -24 -44 -25 -86 -3 -23 12 -27 18 -16 21 11 2 15 10 13 25
-4 21 -4 21 5 2 4 -11 6 -24 4 -28z m37 33 c0 -5 -4 -10 -10 -10 -5 0 -10 5
-10 10 0 6 5 10 10 10 6 0 10 -4 10 -10z m-68 -57 c5 -7 7 -17 3 -24 -12 -18
-25 11 -23 51 0 27 2 30 5 10 3 -14 9 -30 15 -37z m-42 37 c0 -5 -2 -10 -4
-10 -3 0 -8 5 -11 10 -3 6 -1 10 4 10 6 0 11 -4 11 -10z m-9 -57 c-8 -15 -10
-15 -11 -2 0 17 10 32 18 25 2 -3 -1 -13 -7 -23z m-4094 -3 c2 -21 -11 -27
-22 -10 -7 11 2 30 13 30 4 0 8 -9 9 -20z m4143 -35 c0 -8 -7 -15 -15 -15 -16
0 -20 12 -8 23 11 12 23 8 23 -8z m-24 -35 c8 0 14 -8 14 -19 0 -19 23 -45 32
-35 3 2 8 -2 11 -11 4 -8 2 -15 -3 -15 -6 0 -9 -5 -7 -11 1 -6 -4 -14 -12 -17
-10 -3 -12 0 -8 12 4 9 0 21 -9 28 -38 33 -44 41 -43 66 0 15 3 21 6 15 2 -7
11 -13 19 -13z m84 -10 c6 -11 20 -20 30 -20 14 0 20 -6 19 -22 -1 -17 -2 -19
-6 -5 -5 20 -14 22 -31 5 -9 -9 -12 -8 -12 5 0 9 -6 17 -14 17 -9 0 -14 9 -13
20 1 11 5 20 9 20 4 0 12 -9 18 -20z m170 4 c0 -8 -5 -12 -10 -9 -6 4 -8 11
-5 16 9 14 15 11 15 -7z m45 -54 l-7 -32 -14 27 c-17 32 -17 38 -4 30 6 -3 10
2 10 11 0 13 3 15 11 7 7 -7 8 -24 4 -43z m-3425 -25 c37 -19 60 -52 60 -86 0
-21 -7 -30 -32 -40 -18 -7 -52 -32 -76 -55 -50 -48 -83 -60 -124 -43 -37 15
-57 61 -47 112 7 40 57 102 94 117 32 14 94 11 125 -5z m2976 -3 c-3 -4 -1
-25 4 -46 6 -26 5 -35 -2 -28 -5 5 -13 26 -18 46 -6 29 -5 36 7 36 8 0 12 -4
9 -8z m259 -12 c3 -5 1 -10 -4 -10 -6 0 -11 5 -11 10 0 6 2 10 4 10 3 0 8 -4
11 -10z m-43 -32 c-6 -6 -16 -7 -22 -3 -9 6 -9 9 1 16 17 10 34 0 21 -13z m93
-19 c-3 -9 -1 -20 5 -24 5 -3 10 -11 10 -17 0 -6 -11 -2 -24 11 -16 15 -22 29
-18 47 3 20 7 22 18 13 8 -7 12 -20 9 -30z m-163 -9 c-2 -16 -8 -27 -13 -24
-13 8 -11 42 4 47 6 3 12 6 13 6 0 1 -1 -12 -4 -29z m335 -12 c-3 -8 -6 -5 -6
6 -1 11 2 17 5 13 3 -3 4 -12 1 -19z m-303 -3 c-4 -10 0 -15 11 -15 12 0 15
-5 11 -16 -3 -9 -6 -20 -6 -25 0 -5 -7 -9 -15 -9 -9 0 -15 -9 -15 -25 0 -14 5
-25 10 -25 6 0 10 5 10 11 0 7 10 9 25 7 17 -4 25 -1 25 8 0 18 9 18 31 -2 16
-15 16 -17 -3 -50 -20 -34 -58 -47 -58 -20 0 7 -7 19 -15 26 -12 10 -17 6 -29
-23 -16 -40 -37 -57 -34 -30 3 43 -2 51 -39 55 -57 7 -62 3 -51 -45 5 -23 8
-56 6 -74 -1 -17 1 -35 5 -40 11 -10 27 17 27 45 0 25 0 25 34 12 14 -5 26
-16 26 -25 0 -8 7 -15 15 -15 18 0 20 -30 3 -31 -7 -1 -2 -4 12 -8 14 -4 24
-12 24 -17 -1 -5 -5 -29 -9 -53 -6 -38 -5 -43 9 -38 11 5 16 1 16 -12 0 -35
-10 -49 -32 -43 -19 4 -20 1 -17 -41 3 -38 1 -46 -11 -42 -11 3 -16 -3 -17
-23 -5 -52 4 -70 32 -64 25 4 36 -13 13 -20 -7 -3 -12 -33 -13 -84 -1 -44 -5
-85 -9 -92 -12 -20 -28 -2 -22 24 4 16 2 24 -6 24 -9 0 -9 3 0 12 20 20 15 47
-9 41 -13 -4 -17 -9 -11 -15 9 -9 0 -73 -11 -84 -2 -2 -4 20 -5 50 0 47 3 56
21 62 18 6 18 7 4 16 -10 5 -17 13 -17 18 0 15 30 12 30 -2 0 -7 5 -5 11 5 13
23 9 27 -31 34 -31 4 -32 3 -26 -21 3 -13 2 -28 -4 -31 -6 -3 -10 4 -11 17 0
13 -1 42 -3 66 -2 29 2 42 11 42 15 0 16 9 3 30 -9 13 -11 13 -21 0 -8 -12 -9
-9 -3 10 4 14 11 28 17 32 7 4 6 12 -2 22 -20 23 -31 20 -42 -14 -6 -16 -18
-30 -26 -30 -10 0 -12 -6 -8 -22 7 -23 7 -23 -9 -3 -20 26 -20 32 3 38 17 4
20 14 20 78 0 54 -4 78 -16 91 -14 15 -14 24 -4 58 7 22 9 45 6 51 -4 5 -4 37
0 70 5 42 11 59 22 59 12 0 12 2 -1 16 -22 21 -20 39 4 41 11 1 20 -4 20 -13
0 -15 6 -17 62 -18 36 -1 51 15 28 29 -5 3 -10 11 -10 18 0 6 6 3 13 -8 10
-13 16 -15 21 -6 4 6 11 9 16 6 5 -3 11 -1 14 4 4 5 2 12 -4 16 -13 8 -13 45
0 45 5 0 7 -7 4 -15z m55 -37 c12 -15 11 -18 -3 -18 -10 0 -16 8 -16 22 0 12
1 19 3 17 1 -2 9 -12 16 -21z m-271 -114 l4 -29 -20 21 c-11 11 -23 31 -27 44
-7 24 -7 24 16 8 14 -9 25 -27 27 -44z m-3510 -26 c47 -24 67 -63 65 -129 -1
-67 -17 -93 -68 -114 -52 -23 -111 13 -120 74 -12 70 -15 80 -41 110 -29 35
-25 47 20 67 34 16 102 12 144 -8z m3652 -13 c0 -8 -7 -15 -15 -15 -8 0 -15 7
-15 15 0 8 7 15 15 15 8 0 15 -7 15 -15z m-160 -186 c0 -6 -4 -7 -10 -4 -5 3
-10 11 -10 16 0 6 5 7 10 4 6 -3 10 -11 10 -16z m-3988 -49 c-1 -6 2 -9 7 -6
5 3 14 -1 21 -9 7 -8 9 -15 4 -16 -71 -6 -86 -1 -59 21 14 11 14 15 -2 34 -18
20 -18 20 7 4 14 -9 24 -22 22 -28z m3988 15 c0 -8 5 -15 12 -15 9 0 9 -3 0
-12 -10 -10 -15 -10 -22 2 -13 20 -13 40 0 40 6 0 10 -7 10 -15z m410 -15 c0
-5 -2 -10 -4 -10 -3 0 -8 5 -11 10 -3 6 -1 10 4 10 6 0 11 -4 11 -10z m42 -48
c-3 -10 -7 -10 -19 0 -10 8 -11 14 -4 16 6 2 11 13 12 25 1 20 2 20 8 -3 4
-14 6 -31 3 -38z m74 -25 c1 -26 -2 -47 -7 -47 -11 0 -59 45 -59 55 0 16 32
43 48 41 13 -2 17 -14 18 -49z m-239 -44 c-3 -10 -5 -4 -5 12 0 17 2 24 5 18
2 -7 2 -21 0 -30z m-3699 -35 c18 -9 28 -9 42 0 43 26 52 1 25 -65 l-15 -36
-28 25 c-15 14 -42 33 -59 42 -18 9 -33 22 -33 29 0 17 39 20 68 5z m97 -67
c-9 -27 -24 -56 -34 -65 -17 -16 -20 -15 -44 17 -14 18 -43 41 -65 51 -23 10
-43 24 -46 31 -8 22 101 -44 119 -72 l18 -27 19 24 c10 12 24 43 30 69 6 25
13 40 16 33 2 -6 -4 -34 -13 -61z m3785 39 c0 -22 4 -28 15 -24 18 7 20 -7 4
-23 -17 -17 -50 27 -42 55 8 32 23 27 23 -8z m-55 -80 c3 -5 1 -10 -4 -10 -6
0 -11 5 -11 10 0 6 2 10 4 10 3 0 8 -4 11 -10z m60 -32 c-1 -13 -3 -26 -4 -30
-2 -13 -51 -9 -51 5 0 20 17 40 28 33 6 -3 13 -2 17 4 10 16 12 12 10 -12z
m85 -30 c0 -12 -10 -9 -26 6 -20 21 -17 28 6 14 11 -7 20 -16 20 -20z m-30 -8
c0 -5 -2 -10 -4 -10 -3 0 -8 5 -11 10 -3 6 -1 10 4 10 6 0 11 -4 11 -10z m23
-30 c-3 -11 -9 -20 -14 -20 -11 0 -11 3 -3 24 9 23 23 20 17 -4z m-419 -31
c-3 -5 -10 -7 -15 -3 -5 3 -7 10 -3 15 3 5 10 7 15 3 5 -3 7 -10 3 -15z m116
1 c0 -5 -2 -10 -4 -10 -3 0 -8 5 -11 10 -3 6 -1 10 4 10 6 0 11 -4 11 -10z
m-183 -6 c-3 -3 -12 -4 -19 -1 -8 3 -5 6 6 6 11 1 17 -2 13 -5z m483 -32 c0
-16 -9 -37 -20 -47 -12 -10 -18 -25 -16 -32 3 -7 -1 -13 -9 -13 -8 0 -15 -12
-17 -27 -4 -39 -24 -30 -21 10 2 17 3 50 3 72 1 48 14 65 51 65 25 0 29 -4 29
-28z m-276 -27 c12 -18 23 -24 36 -20 18 6 19 2 13 -47 -7 -63 -3 -55 -28 -60
-17 -3 -19 2 -16 32 1 19 8 41 13 48 7 8 7 12 0 12 -21 0 -35 -33 -36 -83 -1
-29 -6 -56 -13 -62 -9 -8 -9 -14 2 -28 7 -10 17 -18 21 -17 5 1 10 -3 12 -9 2
-6 -1 -11 -7 -11 -6 0 -11 -4 -11 -8 0 -5 7 -9 15 -9 8 0 15 8 15 18 0 10 9
19 23 22 20 4 19 5 -10 18 -39 16 -41 25 -11 35 46 14 68 -55 32 -96 -8 -8
-25 -28 -39 -44 -14 -16 -25 -23 -25 -16 0 7 -7 10 -15 6 -9 -3 -15 0 -15 9 0
7 -13 16 -30 20 -25 6 -30 11 -30 37 0 21 6 31 20 35 11 3 20 6 20 8 0 12 -24
65 -29 65 -4 0 -5 16 -3 35 5 44 20 46 16 3 -2 -18 -1 -25 2 -15 3 9 9 17 14
17 15 0 32 39 23 53 -4 6 -6 20 -5 30 4 19 -14 23 -21 5 -4 -9 -6 -10 -6 -1
-1 15 27 43 44 43 7 0 20 -11 29 -25z m-127 -7 c-3 -8 -6 -5 -6 6 -1 11 2 17
5 13 3 -3 4 -12 1 -19z m43 12 c-8 -5 -19 -10 -25 -10 -5 0 -3 5 5 10 8 5 20
10 25 10 6 0 3 -5 -5 -10z m220 -12 c0 12 5 22 10 22 6 0 10 -7 10 -15 0 -8 7
-15 15 -15 9 0 15 -9 15 -22 -1 -21 -2 -22 -14 -5 -22 28 -25 20 -22 -51 3
-58 1 -70 -15 -80 -15 -10 -19 -9 -19 3 0 8 5 15 10 15 13 0 13 33 1 46 -5 5
-12 36 -16 69 -6 57 -5 59 9 35 15 -25 15 -25 16 -2z m-3854 -33 c-14 -15 -22
-33 -19 -44 5 -20 -21 -46 -37 -36 -5 3 -10 12 -10 19 0 18 60 86 76 86 8 0 4
-9 -10 -25z m3528 -77 c-11 -17 -21 3 -22 44 l-1 43 14 -39 c8 -22 12 -43 9
-48z m86 41 c0 -14 -17 -10 -23 5 -4 10 -1 13 9 9 7 -3 14 -9 14 -14z m-3691
-37 c0 -24 -1 -25 -9 -7 -12 28 -12 47 0 40 6 -3 10 -18 9 -33z m3875 13 c-4
-8 -8 -15 -10 -15 -2 0 -4 7 -4 15 0 8 4 15 10 15 5 0 7 -7 4 -15z m-3911 -40
c-5 -13 -23 -22 -23 -11 0 15 14 35 21 31 4 -3 6 -12 2 -20z m3675 13 c7 -7
12 -8 12 -2 0 5 7 -4 15 -20 15 -28 15 -45 1 -141 -3 -22 -3 -32 0 -22 4 11
12 16 21 13 8 -3 18 -6 23 -6 5 0 5 -12 1 -27 -5 -18 -14 -27 -24 -25 -20 3
-23 -14 -4 -21 7 -3 4 -6 -7 -6 -11 -1 -16 -6 -13 -14 3 -7 -4 -19 -14 -25
-10 -7 -19 -21 -19 -32 0 -11 -7 -20 -15 -20 -8 0 -15 7 -15 15 0 9 -7 18 -15
21 -8 4 -15 15 -15 25 0 10 -4 19 -10 19 -5 0 -10 -5 -10 -12 0 -8 -3 -9 -10
-2 -15 15 -1 44 21 44 10 0 19 7 19 15 0 8 -4 15 -10 15 -5 0 -10 -4 -10 -10
0 -5 -4 -10 -8 -10 -5 0 -8 16 -8 35 1 22 6 35 14 35 9 0 11 7 7 20 -4 14 -2
20 8 20 9 0 17 5 19 12 6 17 28 0 28 -23 0 -21 7 -23 30 -9 12 8 12 10 -3 16
-9 3 -17 11 -17 16 0 6 7 8 15 4 11 -4 15 2 15 20 0 17 -7 28 -20 31 -11 3
-20 8 -21 12 0 3 -2 16 -5 29 -4 24 5 29 24 10z m360 -42 c0 -19 -5 -42 -12
-52 -10 -14 -13 -8 -15 35 -1 39 1 51 13 51 9 0 14 -11 14 -34z m-498 4 c0 -5
-4 -10 -10 -10 -5 0 -10 5 -10 10 0 6 5 10 10 10 6 0 10 -4 10 -10z m384 -21
c-3 -5 -10 -7 -15 -3 -5 3 -7 10 -3 15 3 5 10 7 15 3 5 -3 7 -10 3 -15z m73
-31 c-3 -8 -6 -5 -6 6 -1 11 2 17 5 13 3 -3 4 -12 1 -19z m-57 -58 c0 -5 -5
-10 -11 -10 -5 0 -7 5 -4 10 3 6 8 10 11 10 2 0 4 -4 4 -10z m90 -40 c0 -5 -2
-10 -4 -10 -3 0 -8 5 -11 10 -3 6 -1 10 4 10 6 0 11 -4 11 -10z m-165 -88 c-3
-16 -1 -41 4 -55 6 -15 8 -34 4 -43 -4 -12 -9 -8 -21 15 -19 39 -32 40 -32 1
0 -20 -5 -30 -15 -30 -8 0 -15 6 -16 13 -6 73 -5 89 9 95 8 3 20 -2 27 -11 10
-13 13 -12 22 14 14 37 27 38 18 1z m-105 -48 c0 -8 -4 -12 -10 -9 -5 3 -10
13 -10 21 0 8 5 12 10 9 6 -3 10 -13 10 -21z m191 -25 c-24 -23 -31 -24 -31
-4 0 8 7 15 15 15 8 0 15 5 15 11 0 5 5 7 11 4 7 -5 3 -14 -10 -26z m54 -36
c1 -25 -11 -29 -35 -13 -9 6 -11 13 -5 18 6 4 10 13 11 20 3 33 5 36 17 17 6
-11 12 -30 12 -42z m81 10 c-3 -8 -6 -19 -6 -24 0 -5 -4 -9 -9 -9 -10 0 -22
40 -15 51 8 14 35 -3 30 -18z m-456 -2 c0 -5 3 -16 6 -25 4 -10 1 -16 -9 -16
-16 0 -30 27 -21 41 7 12 24 12 24 0z m155 -49 c-8 -8 -25 10 -19 20 4 6 9 5
15 -3 4 -7 6 -15 4 -17z m-45 -12 c0 -11 -4 -20 -10 -20 -5 0 -10 2 -10 4 0 2
-3 11 -6 20 -4 11 -1 16 10 16 9 0 16 -8 16 -20z m110 -3 c0 -6 -7 -18 -15
-28 -13 -14 -20 -15 -40 -5 -27 12 -33 26 -11 26 8 0 16 6 19 14 6 16 47 10
47 -7z m-210 3 c0 -5 -4 -10 -10 -10 -5 0 -10 5 -10 10 0 6 5 10 10 10 6 0 10
-4 10 -10z m114 -39 c3 -5 -5 -16 -19 -25 -24 -16 -25 -16 -25 5 0 15 5 19 15
15 8 -3 15 -1 15 4 0 12 7 13 14 1z m276 -31 c0 -5 -5 -10 -11 -10 -5 0 -7 5
-4 10 3 6 8 10 11 10 2 0 4 -4 4 -10z m-209 -47 c-9 -15 -10 -14 -7 7 6 35 7
37 12 23 3 -7 1 -20 -5 -30z m-68 -2 c3 -11 0 -22 -7 -24 -6 -3 -12 6 -12 19
-2 29 12 32 19 5z m38 -34 c-8 -8 -11 -7 -11 4 0 9 3 19 7 23 4 4 9 2 11 -4 3
-7 -1 -17 -7 -23z m-74 3 c2 -23 -12 -27 -20 -6 -3 8 -1 17 6 20 7 2 12 5 12
5 1 1 1 -8 2 -19z m-27 -20 c0 -5 -4 -10 -10 -10 -5 0 -10 5 -10 10 0 6 5 10
10 10 6 0 10 -4 10 -10z m420 -5 c0 -8 -7 -15 -15 -15 -16 0 -20 12 -8 23 11
12 23 8 23 -8z m-245 -4 c3 -5 1 -12 -4 -15 -5 -3 -11 1 -15 9 -6 16 9 21 19
6z m190 -31 c3 -5 4 -10 1 -10 -2 0 -11 -3 -19 -6 -8 -3 -17 2 -20 10 -7 18
27 23 38 6z m65 -21 c0 -5 -4 -9 -10 -9 -5 0 -10 7 -10 16 0 8 5 12 10 9 6 -3
10 -10 10 -16z m-416 -12 c7 -11 6 -21 -6 -34 -8 -10 -14 -23 -11 -29 2 -6 -3
-23 -11 -39 -8 -16 -13 -32 -10 -37 6 -10 1 -10 -20 -2 -18 7 -22 49 -6 59 6
3 10 1 10 -6 0 -10 3 -10 11 -2 7 7 8 17 3 25 -8 13 -6 66 3 81 7 11 25 4 37
-16z m-147 -14 c-3 -3 -11 -2 -17 2 -9 6 -9 10 1 16 14 8 27 -7 16 -18z m399
-9 c-7 -39 -16 -42 -16 -6 0 18 5 32 10 32 6 0 8 -12 6 -26z m-143 -1 c-7 -2
-21 -2 -30 0 -10 3 -4 5 12 5 17 0 24 -2 18 -5z m-47 -70 c-4 -21 -8 -60 -10
-88 -2 -27 -9 -63 -16 -80 -6 -16 -9 -37 -7 -47 3 -10 1 -18 -4 -18 -9 0 -13
14 -10 40 2 13 1 13 -8 0 -5 -8 -14 -11 -18 -6 -4 5 -3 11 4 13 8 3 10 20 6
54 -5 39 -2 53 12 69 10 11 15 20 11 20 -4 0 0 7 9 16 9 9 14 23 11 30 -3 8
-1 14 5 14 6 0 7 5 4 10 -3 6 -1 10 6 10 7 0 9 -12 5 -37z m-280 16 c3 -6 1
-16 -5 -22 -9 -9 -14 -8 -21 3 -5 8 -10 18 -10 23 0 11 28 8 36 -4z m514 -99
c0 -5 -5 -10 -11 -10 -5 0 -7 5 -4 10 3 6 8 10 11 10 2 0 4 -4 4 -10z m-50
-10 c0 -5 -4 -10 -10 -10 -5 0 -10 5 -10 10 0 6 5 10 10 10 6 0 10 -4 10 -10z
m50 -41 c0 -11 -4 -17 -10 -14 -5 3 -10 13 -10 21 0 8 5 14 10 14 6 0 10 -9
10 -21z m-505 -9 c-3 -5 -10 -10 -16 -10 -5 0 -9 5 -9 10 0 6 7 10 16 10 8 0
12 -4 9 -10z m173 -91 c-18 -11 -23 7 -6 25 11 12 13 12 16 -1 2 -9 -2 -19
-10 -24z m-1408 27 c0 -2 -7 -7 -16 -10 -8 -3 -12 -2 -9 4 6 10 25 14 25 6z
m1667 -38 c-3 -8 -6 -5 -6 6 -1 11 2 17 5 13 3 -3 4 -12 1 -19z m60 -10 c-3
-8 -6 -5 -6 6 -1 11 2 17 5 13 3 -3 4 -12 1 -19z m-204 -18 c-5 -54 -11 -74
-22 -78 -6 -2 -12 7 -12 20 -2 30 -2 30 7 51 6 16 3 17 -22 12 -28 -6 -28 -6
-9 10 30 24 61 16 58 -15z m-53 -47 c0 -21 -5 -45 -11 -53 -9 -13 -10 -13 -6
0 2 8 0 28 -4 44 -9 30 -5 46 12 46 5 0 9 -17 9 -37z m273 17 c-3 -11 -9 -20
-14 -20 -14 0 -11 28 4 33 6 3 13 6 14 6 0 1 -1 -8 -4 -19z m-373 -44 c0 -3
-4 -8 -10 -11 -5 -3 -10 -1 -10 4 0 6 5 11 10 11 6 0 10 -2 10 -4z m27 -28
c-15 -11 -27 -28 -27 -39 0 -23 -13 -25 -30 -4 -14 17 -5 35 18 35 10 0 23 9
30 20 7 12 18 18 24 14 7 -5 1 -14 -15 -26z m233 2 c0 -5 -2 -10 -4 -10 -3 0
-8 5 -11 10 -3 6 -1 10 4 10 6 0 11 -4 11 -10z m-1637 -29 c4 11 9 10 21 -5
11 -14 13 -23 6 -30 -13 -13 -70 -17 -70 -5 0 5 5 9 10 9 6 0 10 10 10 23 0
16 3 18 9 8 7 -11 9 -11 14 0z m1317 -87 c0 -8 -4 -14 -9 -14 -6 0 -9 9 -8 19
1 22 17 18 17 -5z m25 16 c3 -5 1 -10 -4 -10 -6 0 -11 5 -11 10 0 6 2 10 4 10
3 0 8 -4 11 -10z m105 -4 c0 -3 -4 -8 -10 -11 -5 -3 -10 -1 -10 4 0 6 5 11 10
11 6 0 10 -2 10 -4z m277 -118 c-3 -8 -6 -5 -6 6 -1 11 2 17 5 13 3 -3 4 -12
1 -19z m-1657 -74 c0 -18 -37 -38 -45 -24 -10 16 14 50 30 44 8 -4 15 -12 15
-20z m-130 -78 c0 -35 -45 -50 -47 -16 -1 15 4 20 23 20 13 0 24 -2 24 -4z
m1445 -16 c3 -5 -1 -10 -10 -10 -9 0 -13 5 -10 10 3 6 8 10 10 10 2 0 7 -4 10
-10z m-209 -25 c-3 -8 -1 -15 4 -15 6 0 8 -10 6 -22 -3 -13 -5 -26 -5 -30 -1
-5 -4 -8 -8 -8 -5 0 -9 20 -11 45 -2 29 1 45 9 45 6 0 9 -7 5 -15z m199 -25
c-3 -5 -10 -10 -16 -10 -5 0 -9 5 -9 10 0 6 7 10 16 10 8 0 12 -4 9 -10z m225
-50 c27 -27 25 -32 -5 -18 -14 6 -25 17 -25 25 0 18 7 16 30 -7z m-50 -10 c0
-5 -5 -10 -11 -10 -5 0 -7 5 -4 10 3 6 8 10 11 10 2 0 4 -4 4 -10z m154 -60
c-6 -5 -24 21 -24 34 0 6 6 1 14 -10 8 -10 12 -21 10 -24z m-514 0 c-18 -11
-24 -6 -16 16 5 14 9 15 19 5 9 -9 9 -14 -3 -21z m382 -25 c18 -11 40 -24 50
-30 10 -5 18 -14 18 -19 0 -4 7 -3 15 4 14 11 14 10 6 -13 -6 -15 -8 -33 -5
-40 2 -7 0 -24 -5 -38 -7 -18 -10 -20 -10 -6 -1 10 -7 17 -13 14 -19 -6 -11
-128 9 -144 13 -10 14 -15 3 -28 -7 -8 -10 -19 -6 -22 4 -4 11 -1 16 7 6 9 10
10 10 3 0 -7 -7 -16 -15 -20 -19 -11 -37 -70 -24 -78 5 -4 9 -17 9 -31 0 -14
4 -22 10 -19 6 3 10 2 10 -2 0 -5 -9 -14 -20 -21 -15 -9 -18 -19 -14 -41 4
-16 1 -32 -5 -36 -7 -4 -9 -19 -5 -40 3 -20 0 -43 -9 -61 -8 -16 -15 -51 -16
-78 -1 -28 -8 -60 -16 -73 -8 -12 -15 -29 -15 -38 0 -23 -17 -18 -25 8 l-7 22
-8 -25 -8 -25 -1 25 c-1 14 -8 34 -17 45 -9 12 -12 30 -9 46 8 35 -18 58 -40
36 -18 -19 -19 -34 -3 -39 7 -3 8 -10 4 -17 -7 -11 -10 -11 -18 0 -7 10 -11
11 -14 3 -3 -7 -13 -10 -22 -7 -14 3 -17 12 -14 41 6 51 52 101 52 56 0 -11 6
-14 23 -8 32 10 34 14 12 30 -11 8 -21 24 -21 34 -1 22 11 27 22 9 4 -8 9 -8
17 0 7 7 6 16 -6 29 -9 10 -17 32 -17 48 0 57 -16 59 -41 5 -12 -28 -26 -51
-30 -51 -9 0 -21 61 -13 69 3 3 12 -3 20 -14 14 -19 15 -18 12 15 -2 27 -7 34
-20 32 -12 -2 -16 2 -12 12 8 21 -43 41 -62 25 -8 -6 -14 -8 -14 -4 0 4 8 14
18 21 13 10 14 15 5 25 -9 9 -8 15 3 26 20 20 18 33 -6 33 -12 0 -20 -7 -20
-16 0 -9 -6 -14 -12 -11 -16 5 -15 114 1 130 8 8 11 -1 11 -34 0 -51 8 -55 68
-37 49 15 66 -6 18 -22 -27 -9 -36 -17 -36 -34 0 -28 34 -61 55 -53 8 4 15 2
15 -4 0 -6 5 -7 10 -4 6 3 10 1 10 -4 0 -6 5 -11 10 -11 16 0 12 60 -5 66 -10
4 -12 15 -9 34 5 21 1 31 -15 42 -17 12 -20 20 -12 39 6 15 10 18 10 8 1 -9
10 -26 21 -39 11 -13 20 -28 20 -33 0 -13 40 -57 52 -57 9 0 6 24 -10 62 -6
15 -8 36 -5 45 7 17 6 17 -11 1 -9 -10 -18 -18 -19 -18 -2 0 -5 40 -9 123 -1
20 -6 37 -11 37 -4 0 -6 4 -2 9 3 5 1 12 -5 16 -21 13 -9 27 18 22 36 -7 68
10 35 19 -18 5 -22 11 -17 30 4 15 2 24 -5 24 -7 0 -5 9 6 23 10 15 24 22 35
19 11 -2 21 3 25 14 7 18 8 18 11 -1 1 -11 17 -29 34 -40z m48 45 c0 -5 -5
-10 -11 -10 -5 0 -7 5 -4 10 3 6 8 10 11 10 2 0 4 -4 4 -10z m-160 -10 c-20
-13 -33 -13 -25 0 3 6 14 10 23 10 15 0 15 -2 2 -10z m-180 -15 c0 -8 -4 -15
-10 -15 -5 0 -10 7 -10 15 0 8 5 15 10 15 6 0 10 -7 10 -15z m390 -25 c0 -5
-2 -10 -4 -10 -3 0 -8 5 -11 10 -3 6 -1 10 4 10 6 0 11 -4 11 -10z m-1654 -37
c-11 -11 -19 6 -11 24 8 17 8 17 12 0 3 -10 2 -21 -1 -24z m1820 0 c-10 -10
-19 5 -10 18 6 11 8 11 12 0 2 -7 1 -15 -2 -18z m-771 7 c3 -5 1 -10 -4 -10
-6 0 -11 5 -11 10 0 6 2 10 4 10 3 0 8 -4 11 -10z m737 -12 c2 -16 9 -22 23
-20 19 2 19 2 2 -9 -26 -15 -47 -4 -47 26 0 31 17 33 22 3z m-738 -34 c9 -22
8 -24 -9 -18 -8 4 -15 12 -15 20 0 19 16 18 24 -2z m226 -3 c0 -6 -4 -13 -10
-16 -5 -3 -10 1 -10 9 0 9 5 16 10 16 6 0 10 -4 10 -9z m405 -71 c7 -8 15 -24
17 -35 2 -11 9 -20 16 -20 12 0 32 -23 32 -35 -1 -3 -7 -14 -16 -25 -12 -16
-17 -17 -23 -7 -7 11 -9 10 -14 -3 -5 -11 2 -20 24 -29 l31 -13 -36 -29 c-20
-16 -36 -37 -36 -46 0 -23 -19 -33 -26 -13 -5 13 -9 13 -21 3 -13 -10 -15 -9
-12 7 3 11 11 20 19 20 8 1 14 7 12 13 -1 7 2 21 6 30 5 9 12 30 16 46 6 26 5
28 -8 17 -14 -12 -16 -10 -16 9 0 19 4 21 24 16 14 -3 27 -2 31 4 6 9 -21 71
-35 80 -10 6 -13 28 -10 55 2 16 4 15 7 -5 3 -14 11 -32 18 -40z m-1815 30 c0
-5 -4 -10 -10 -10 -5 0 -10 5 -10 10 0 6 5 10 10 10 6 0 10 -4 10 -10z m1472
-46 c-7 -36 -20 -29 -17 9 4 43 4 44 14 29 4 -7 6 -24 3 -38z m-127 -12 c2
-23 -1 -44 -6 -48 -5 -3 -9 3 -9 13 0 11 -4 23 -10 29 -12 12 -1 56 12 52 6
-2 11 -23 13 -46z m196 25 c-13 -13 -26 -3 -16 12 3 6 11 8 17 5 6 -4 6 -10
-1 -17z m336 -3 c-9 -9 -28 6 -21 18 4 6 10 6 17 -1 6 -6 8 -13 4 -17z m117
-57 c4 -62 2 -77 -9 -77 -8 0 -16 4 -20 10 -3 5 -12 7 -20 3 -8 -3 -15 0 -15
7 0 6 3 9 8 6 4 -2 15 2 25 9 13 9 15 20 11 43 -4 18 -10 29 -15 26 -5 -3 -7
-10 -4 -15 4 -5 1 -9 -4 -9 -18 0 -12 27 11 53 13 14 24 25 25 23 1 -1 4 -37
7 -79z m-792 34 c2 -17 1 -28 -4 -25 -8 5 -12 54 -4 54 2 0 6 -13 8 -29z m708
-1 c0 -5 -4 -10 -9 -10 -6 0 -13 5 -16 10 -3 6 1 10 9 10 9 0 16 -4 16 -10z
m-412 -69 c-13 -28 -27 -50 -32 -51 -4 0 -5 7 -2 16 3 9 6 32 7 52 1 32 2 33
8 12 7 -24 7 -24 21 10 8 18 16 28 18 22 2 -7 -7 -34 -20 -61z m279 27 c-3 -8
-6 -5 -6 6 -1 11 2 17 5 13 3 -3 4 -12 1 -19z m-577 -8 c0 -5 -4 -10 -10 -10
-5 0 -10 5 -10 10 0 6 5 10 10 10 6 0 10 -4 10 -10z m20 -41 c0 -5 -4 -9 -10
-9 -5 0 -10 7 -10 16 0 8 5 12 10 9 6 -3 10 -10 10 -16z m227 -11 c-3 -8 -6
-5 -6 6 -1 11 2 17 5 13 3 -3 4 -12 1 -19z m-227 -18 c0 -5 -5 -10 -11 -10 -5
0 -7 5 -4 10 3 6 8 10 11 10 2 0 4 -4 4 -10z m5 -51 c4 -11 5 -23 2 -26 -3 -2
-8 5 -12 16 -3 11 -14 22 -23 24 -13 4 -11 5 5 6 14 1 24 -7 28 -20z m655 -46
c0 -45 -17 -61 -25 -25 -7 32 -1 52 16 52 5 0 9 -12 9 -27z m-620 -7 c0 -8 7
-16 15 -20 8 -3 15 -12 15 -19 0 -8 -7 -14 -15 -14 -8 0 -15 5 -15 10 0 6 -3
8 -6 5 -3 -4 -1 -15 5 -27 6 -11 12 -33 13 -48 2 -36 28 -69 39 -51 11 18 27
0 33 -38 5 -24 2 -33 -11 -38 -9 -4 -20 -1 -24 6 -4 7 -11 9 -15 5 -4 -3 -1
-13 6 -22 7 -9 10 -19 6 -22 -4 -4 -12 -1 -17 7 -7 11 -8 6 -4 -17 4 -22 3
-33 -5 -33 -7 0 -9 -8 -5 -21 8 -25 -2 -69 -16 -69 -6 0 -8 4 -5 9 7 11 -4
101 -13 101 -3 0 -13 -5 -21 -10 -13 -9 -12 -12 4 -25 11 -8 16 -18 13 -22
-11 -10 -49 36 -43 53 3 7 10 14 15 14 10 0 13 69 4 84 -9 14 -11 76 -2 76 15
0 19 -19 9 -44 -8 -21 -7 -26 6 -26 9 0 14 6 11 13 -2 6 -1 24 4 38 4 16 3 31
-3 37 -13 13 -1 122 13 122 5 0 9 -6 9 -14z m-1249 -36 c-23 -20 -41 -26 -41
-14 0 11 34 33 50 33 10 0 8 -6 -9 -19z m1377 -28 c2 -27 -1 -42 -9 -42 -7 0
-9 10 -6 28 3 17 -1 34 -11 46 -16 17 -16 18 3 15 16 -3 21 -13 23 -47z m-192
-19 c-10 -10 -19 5 -10 18 6 11 8 11 12 0 2 -7 1 -15 -2 -18z m794 17 c0 -5
-2 -10 -4 -10 -3 0 -8 5 -11 10 -3 6 -1 10 4 10 6 0 11 -4 11 -10z m-107 -55
c-5 -46 -3 -55 10 -55 9 0 19 -11 23 -25 13 -50 -19 -44 -42 9 -10 23 -13 26
-14 11 l-1 -20 -11 20 c-16 29 -16 29 -33 15 -13 -10 -15 -9 -15 9 0 12 6 21
15 21 19 0 49 28 58 53 12 32 16 17 10 -38z m-563 19 c0 -21 -17 -17 -23 5 -3
14 -1 18 9 14 8 -3 14 -11 14 -19z m640 21 c0 -3 -10 -16 -21 -28 -12 -12 -20
-17 -17 -12 3 6 8 18 11 28 6 15 27 25 27 12z m-540 -50 c0 -8 -4 -15 -10 -15
-5 0 -7 7 -4 15 4 8 8 15 10 15 2 0 4 -7 4 -15z m556 -33 c-14 -15 -15 -13 -3
17 8 23 13 28 15 16 2 -10 -3 -25 -12 -33z m-44 6 c-7 -7 -12 -8 -12 -2 0 14
12 26 19 19 2 -3 -1 -11 -7 -17z m-732 -2 c0 -8 -4 -18 -10 -21 -5 -3 -10 3
-10 14 0 12 5 21 10 21 6 0 10 -6 10 -14z m182 -26 c-2 -16 -9 -30 -14 -30 -6
0 -7 7 -4 16 3 9 6 22 6 30 0 8 4 14 8 14 5 0 7 -13 4 -30z m178 20 c0 -5 -4
-10 -10 -10 -5 0 -10 5 -10 10 0 6 5 10 10 10 6 0 10 -4 10 -10z m-113 -19 c0
-11 -5 -17 -9 -15 -11 7 -10 34 1 34 6 0 9 -9 8 -19z m368 -40 c-3 -17 -2 -32
4 -36 14 -8 14 -45 2 -45 -14 0 -41 42 -41 64 0 15 24 44 38 46 2 0 1 -13 -3
-29z m-648 -13 c-3 -7 -5 -2 -5 12 0 14 2 19 5 13 2 -7 2 -19 0 -25z m353 18
c0 -3 -4 -8 -10 -11 -5 -3 -10 -1 -10 4 0 6 5 11 10 11 6 0 10 -2 10 -4z m393
-65 c-6 -3 -13 -13 -16 -21 -4 -11 -6 -9 -6 6 -1 24 22 51 28 33 2 -6 -1 -14
-6 -18z m-572 -14 c-8 -8 -11 -7 -11 4 0 20 13 34 18 19 3 -7 -1 -17 -7 -23z
m-152 -47 c5 0 6 -11 3 -25 -9 -48 -22 -24 -20 38 1 41 3 50 5 25 2 -21 8 -38
12 -38z m787 18 c-4 -41 -26 -50 -26 -10 0 16 3 32 7 35 15 15 23 5 19 -25z
m-1956 8 c0 -8 -4 -17 -9 -21 -12 -7 -24 12 -16 25 9 15 25 12 25 -4z m1796
-45 c0 -23 -3 -44 -7 -47 -8 -5 0 -44 13 -61 20 -25 -11 -21 -43 6 -27 23 -39
27 -56 20 -14 -5 -23 -5 -23 1 0 6 7 10 15 10 8 0 15 6 15 14 0 9 7 12 19 9
25 -6 36 23 13 36 -15 9 -14 10 6 11 17 0 22 6 22 26 0 16 5 24 13 22 7 -3 12
-22 13 -47z m-471 18 c-5 -14 -1 -25 11 -33 12 -9 14 -15 6 -20 -15 -9 -37 37
-29 58 9 24 19 19 12 -5z m585 -22 c0 -8 -7 -14 -15 -14 -25 0 -17 17 13 26 1
1 2 -5 2 -12z m-440 -27 c0 -5 -4 -10 -10 -10 -5 0 -10 5 -10 10 0 6 5 10 10
10 6 0 10 -4 10 -10z m92 -14 c7 -34 -3 -47 -24 -32 -16 11 -16 15 -2 34 19
28 21 27 26 -2z m-380 -8 c6 -17 -1 -38 -13 -38 -5 0 -9 11 -9 25 0 26 14 34
22 13z m518 2 c0 -5 -2 -10 -4 -10 -3 0 -8 5 -11 10 -3 6 -1 10 4 10 6 0 11
-4 11 -10z m-200 -35 c0 -8 -4 -15 -10 -15 -5 0 -7 7 -4 15 4 8 8 15 10 15 2
0 4 -7 4 -15z m432 0 c0 -5 -5 -11 -11 -13 -6 -2 -11 4 -11 13 0 9 5 15 11 13
6 -2 11 -8 11 -13z m-360 -37 c-7 -7 -12 -8 -12 -2 0 14 12 26 19 19 2 -3 -1
-11 -7 -17z m-392 -8 c0 -11 -4 -20 -9 -20 -5 0 -7 9 -4 20 3 11 7 20 9 20 2
0 4 -9 4 -20z m190 -2 c0 -18 -2 -20 -9 -8 -6 8 -7 18 -5 22 9 14 14 9 14 -14z
m341 -25 c5 -13 13 -21 19 -18 5 3 10 -2 10 -11 0 -10 -3 -14 -7 -11 -3 4 -15
-7 -25 -23 -21 -36 -22 -40 -5 -40 7 0 18 -14 25 -32 9 -23 15 -29 23 -21 8 8
8 17 0 31 -6 10 -8 22 -4 25 3 4 0 13 -7 22 -13 16 -3 20 18 7 9 -6 12 -30 9
-83 -4 -77 1 -91 40 -103 12 -4 27 -13 33 -21 10 -12 9 -15 -9 -15 -22 0 -28
-14 -11 -25 12 -8 13 -65 1 -65 -5 0 -12 25 -16 55 -4 39 -13 60 -28 72 -12
10 -28 31 -35 47 -8 18 -17 25 -22 20 -17 -17 -17 -58 -2 -84 11 -18 12 -22 2
-12 -18 16 -30 15 -30 -2 0 -8 -7 -17 -16 -20 -14 -5 -15 4 -14 71 3 106 2
115 -11 107 -11 -6 -29 12 -29 29 0 4 11 12 25 17 26 10 34 35 13 42 -9 3 -8
10 5 22 9 10 15 22 12 27 -8 13 4 31 16 23 6 -3 14 -17 20 -31z m-174 3 c-22
-17 -31 -110 -9 -101 8 3 16 -3 19 -15 3 -11 9 -20 14 -20 12 0 11 -87 -1 -95
-5 -3 -10 2 -10 12 0 10 -7 31 -15 47 -8 15 -15 34 -15 41 0 7 -5 15 -12 17
-6 2 -12 15 -13 29 -2 13 -6 38 -10 56 -8 33 -7 33 60 41 6 1 2 -5 -8 -12z
m297 -11 c-5 -19 -2 -25 10 -25 15 0 15 -2 0 -25 -10 -15 -12 -25 -5 -25 6 0
11 -7 11 -16 0 -23 25 -11 26 13 2 31 13 57 21 49 4 -4 6 -23 4 -42 -2 -27 0
-33 13 -28 11 4 16 1 16 -10 0 -11 -9 -16 -26 -16 -24 0 -26 -3 -22 -30 3 -17
1 -33 -4 -36 -4 -3 -8 0 -8 7 0 7 -10 9 -25 7 -17 -4 -25 -1 -25 9 0 8 -7 22
-16 30 -10 10 -14 28 -12 48 3 25 0 31 -10 28 -10 -4 -13 3 -10 28 2 19 7 33
11 31 4 -1 15 4 23 13 23 22 35 18 28 -10z m-644 -25 c0 -3 -7 -7 -15 -7 -8 0
-15 9 -15 20 0 16 3 17 15 7 8 -7 15 -16 15 -20z m790 15 c0 -8 -4 -15 -10
-15 -5 0 -10 7 -10 15 0 8 5 15 10 15 6 0 10 -7 10 -15z m-719 -8 c-1 -12 -15
-9 -19 4 -3 6 1 10 8 8 6 -3 11 -8 11 -12z m101 -19 c-7 -7 -12 -8 -12 -2 0
14 12 26 19 19 2 -3 -1 -11 -7 -17z m258 0 c0 -18 -2 -20 -9 -8 -6 8 -7 18 -5
22 9 14 14 9 14 -14z m-283 -9 c-3 -12 0 -22 9 -26 9 -3 14 -19 13 -42 0 -34
-1 -34 -10 -11 -6 13 -14 27 -18 30 -5 3 -10 16 -11 30 -3 35 -2 40 11 40 7 0
9 -9 6 -21z m613 -8 c0 -6 -4 -13 -10 -16 -5 -3 -10 1 -10 9 0 9 5 16 10 16 6
0 10 -4 10 -9z m-1915 -11 c-3 -5 -10 -10 -16 -10 -5 0 -9 5 -9 10 0 6 7 10
16 10 8 0 12 -4 9 -10z m1128 -5 c-3 -9 -8 -14 -10 -11 -3 3 -2 9 2 15 9 16
15 13 8 -4z m12 -37 c-4 -17 -11 -63 -15 -102 l-7 -71 -2 64 c-1 56 15 141 26
141 3 0 1 -14 -2 -32z m795 -43 c0 -8 -4 -15 -10 -15 -5 0 -10 7 -10 15 0 8 5
15 10 15 6 0 10 -7 10 -15z m-323 -17 c-3 -8 -6 -5 -6 6 -1 11 2 17 5 13 3 -3
4 -12 1 -19z m271 -33 c-3 -3 -9 2 -12 12 -6 14 -5 15 5 6 7 -7 10 -15 7 -18z
m-273 -65 c-4 -65 -3 -70 15 -70 13 0 22 -9 26 -25 6 -23 4 -43 -12 -131 -4
-21 -1 -36 10 -47 10 -10 12 -18 6 -22 -5 -3 -10 -1 -10 4 0 6 -7 11 -15 11
-8 0 -15 -5 -15 -10 0 -6 -10 -15 -22 -20 -18 -7 -19 -9 -5 -9 26 -1 27 -69 1
-84 -9 -5 -12 -16 -9 -28 5 -13 2 -19 -10 -19 -9 0 -15 6 -12 13 2 6 -4 29
-14 49 -21 41 -25 83 -8 73 6 -4 17 1 24 11 18 23 20 43 3 26 -7 -7 -20 -12
-30 -12 -10 0 -18 -6 -18 -12 0 -9 -4 -8 -10 2 -5 8 -10 34 -10 58 0 33 -4 42
-17 42 -14 0 -18 10 -20 47 -2 59 9 75 43 62 35 -13 33 -13 50 26 9 22 12 53
9 86 -4 47 -3 50 15 44 12 -4 20 -2 20 5 0 6 4 8 10 5 5 -3 7 -36 5 -75z
m-304 33 c-9 -16 -10 -14 -11 12 0 21 3 26 11 18 8 -8 8 -16 0 -30z m87 -16
c2 -10 -3 -17 -12 -17 -10 0 -16 9 -16 21 0 24 23 21 28 -4z m-156 -49 c-8
-33 -18 -19 -14 20 4 29 6 33 12 17 4 -11 5 -28 2 -37z m118 12 c0 -5 -4 -10
-10 -10 -5 0 -10 5 -10 10 0 6 5 10 10 10 6 0 10 -4 10 -10z m140 -10 c0 -5
-2 -10 -4 -10 -3 0 -8 5 -11 10 -3 6 -1 10 4 10 6 0 11 -4 11 -10z m-116 -15
c-4 -8 -11 -12 -16 -9 -6 4 -5 10 3 15 19 12 19 11 13 -6z m356 -9 c0 -7 -6
-13 -14 -13 -8 0 -11 8 -8 19 5 19 22 15 22 -6z m-28 -56 c6 0 8 -3 5 -7 -4
-3 3 -11 16 -17 13 -7 23 -23 25 -39 4 -30 -9 -35 -28 -12 -7 8 -19 15 -26 15
-9 0 -14 10 -14 28 1 15 0 34 -1 42 -1 8 -1 24 1 35 2 12 5 8 7 -12 2 -18 9
-33 15 -33z m-339 20 c3 -11 1 -18 -4 -14 -5 3 -9 12 -9 20 0 20 7 17 13 -6z
m554 -2 c-3 -8 -6 -5 -6 6 -1 11 2 17 5 13 3 -3 4 -12 1 -19z m-62 -20 c2 -13
6 -31 10 -40 10 -25 -10 -23 -34 3 -17 19 -18 23 -5 36 8 8 14 19 14 25 0 20
13 0 15 -24z m-752 7 c-3 -9 -8 -14 -10 -11 -3 3 -2 9 2 15 9 16 15 13 8 -4z
m687 -41 c0 -8 -5 -12 -10 -9 -6 4 -8 11 -5 16 9 14 15 11 15 -7z m21 -84 c0
-20 2 -22 7 -7 7 17 9 16 30 -3 26 -24 31 -73 7 -64 -8 4 -15 1 -15 -5 0 -6
-4 -11 -10 -11 -5 0 -10 11 -10 24 0 18 -4 23 -17 20 -15 -4 -18 1 -17 28 3
73 4 74 14 58 5 -8 10 -26 11 -40z m-431 -6 c0 -13 -4 -24 -10 -24 -5 0 -10
14 -10 31 0 17 4 28 10 24 6 -3 10 -17 10 -31z m310 26 c0 -5 -5 -10 -11 -10
-5 0 -7 5 -4 10 3 6 8 10 11 10 2 0 4 -4 4 -10z m230 0 c13 -8 13 -12 -3 -27
-15 -16 -19 -16 -27 -3 -22 34 -4 52 30 30z m-196 -18 c3 -5 -1 -9 -9 -9 -8 0
-15 4 -15 9 0 4 4 8 9 8 6 0 12 -4 15 -8z m-59 -21 c3 -5 1 -12 -5 -16 -5 -3
-10 1 -10 9 0 18 6 21 15 7z m-307 -29 c2 -12 -1 -22 -7 -22 -6 0 -11 5 -11
10 0 6 -7 10 -16 10 -14 0 -14 3 -4 15 17 20 34 14 38 -13z m383 -18 c-10 -18
-10 -18 -11 -1 0 10 -4 16 -9 13 -5 -4 -7 3 -4 15 5 18 7 19 20 6 12 -11 13
-19 4 -33z m-598 15 c17 -1 18 -2 5 -6 -10 -2 -21 -15 -24 -29 -3 -13 -10 -24
-15 -24 -12 0 -11 17 1 25 6 3 10 14 10 23 0 15 -2 15 -10 2 -8 -13 -10 -13
-10 1 0 19 13 34 18 20 2 -6 13 -12 25 -12z m68 -60 c14 -8 -1 -39 -18 -39
-10 0 -13 6 -9 16 3 9 7 28 7 42 1 21 2 23 6 7 3 -11 9 -23 14 -26z m109 20
c0 -5 -4 -9 -10 -9 -5 0 -10 7 -10 16 0 8 5 12 10 9 6 -3 10 -10 10 -16z
m-164 -86 c-3 -8 -10 -11 -16 -8 -10 6 -8 24 7 83 7 24 8 22 11 -17 2 -24 1
-50 -2 -58z m124 81 c0 -8 -4 -12 -10 -9 -5 3 -10 10 -10 16 0 5 5 9 10 9 6 0
10 -7 10 -16z m408 -16 c-2 -16 -11 -24 -28 -26 -23 -2 -24 -1 -7 11 9 8 17
19 17 26 0 6 5 11 11 11 6 0 9 -10 7 -22z m109 0 c-3 -8 -6 -5 -6 6 -1 11 2
17 5 13 3 -3 4 -12 1 -19z m104 -8 c6 0 7 -5 4 -10 -4 -6 -1 -19 6 -28 7 -9
-1 -4 -19 12 -36 33 -40 41 -16 32 9 -3 20 -6 25 -6z m-391 -9 c0 -6 -4 -13
-10 -16 -5 -3 -10 1 -10 9 0 9 5 16 10 16 6 0 10 -4 10 -9z m275 -1 c3 -5 2
-10 -4 -10 -5 0 -13 5 -16 10 -3 6 -2 10 4 10 5 0 13 -4 16 -10z m46 -3 c-1
-4 -1 -17 -2 -29 0 -16 -2 -18 -6 -8 -3 8 -10 18 -16 21 -12 8 1 31 15 27 5
-2 9 -7 9 -11z m-562 -16 c9 -6 10 -11 2 -15 -13 -8 -31 1 -31 15 0 11 11 11
29 0z m606 -28 c4 -18 2 -29 -8 -35 -9 -4 -14 -19 -12 -33 3 -28 3 -27 -19
-19 -9 3 -16 14 -16 24 0 11 -4 22 -10 25 -15 9 -12 28 4 22 8 -3 18 5 25 19
14 31 27 30 36 -3z m-409 -18 c-3 -9 -11 -13 -16 -10 -8 5 -7 11 1 21 14 18
24 11 15 -11z m296 -27 c2 -24 9 -34 26 -38 23 -5 23 -5 2 -20 -20 -14 -29
-47 -10 -35 6 3 10 -3 10 -14 0 -50 -50 -5 -55 49 -4 40 -25 83 -25 50 0 -7
-3 -11 -6 -8 -11 11 17 48 36 48 14 0 20 -8 22 -32z m-491 -9 l6 -24 11 25 c6
14 11 18 12 10 0 -13 1 -13 10 0 16 25 23 3 26 -85 3 -83 -1 -96 -22 -75 -6 6
-10 1 -9 -17 0 -18 -6 -29 -17 -31 -13 -2 -18 3 -18 18 0 12 -4 19 -9 16 -4
-3 -17 1 -27 9 -18 14 -18 14 -1 15 11 0 17 5 14 13 -2 6 -10 11 -17 9 -10 -2
-11 1 -3 10 22 28 25 69 6 84 -12 9 -13 13 -5 14 7 0 10 5 7 10 -8 13 4 32 18
27 6 -2 14 -14 18 -28z m168 -22 c1 -5 -3 -5 -9 -2 -5 3 -10 16 -9 28 0 21 1
21 9 2 5 -11 9 -24 9 -28z m64 29 c3 3 3 -3 0 -15 -6 -22 12 -30 19 -9 6 16
38 2 38 -17 0 -8 -5 -14 -12 -12 -8 1 -11 -13 -9 -45 2 -30 -3 -56 -13 -69 -8
-12 -12 -27 -10 -34 3 -7 0 -16 -7 -20 -9 -6 -11 5 -7 44 3 28 1 54 -3 57 -5
3 -9 -13 -9 -35 0 -21 -3 -46 -6 -55 -9 -23 -23 -10 -17 15 4 15 0 22 -16 26
-27 7 -27 21 2 33 12 5 16 9 10 9 -7 1 -13 14 -13 30 0 25 4 29 23 27 20 -2
23 1 19 20 -2 13 -14 25 -28 28 -13 4 -24 10 -24 15 0 13 33 19 46 9 6 -4 13
-5 17 -2z m-353 -6 c0 -5 -7 -10 -15 -10 -8 0 -15 5 -15 10 0 6 7 10 15 10 8
0 15 -4 15 -10z m-5 -30 c3 -5 2 -10 -4 -10 -5 0 -13 5 -16 10 -3 6 -2 10 4
10 5 0 13 -4 16 -10z m526 -53 c-13 -13 -26 -3 -16 12 3 6 11 8 17 5 6 -4 6
-10 -1 -17z m-506 -64 c2 -21 -3 -57 -11 -81 -8 -23 -14 -65 -14 -92 0 -38 -5
-54 -22 -70 -19 -18 -24 -18 -37 -6 -21 22 -2 82 25 77 18 -3 18 -2 1 17 -11
12 -14 23 -9 26 6 3 13 0 16 -6 3 -7 4 6 2 30 -3 26 1 54 10 70 8 15 14 36 14
48 0 21 10 37 18 29 3 -2 6 -21 7 -42z m42 15 c-3 -8 -6 -5 -6 6 -1 11 2 17 5
13 3 -3 4 -12 1 -19z m533 13 c0 -6 -4 -13 -10 -16 -15 -9 -12 -25 4 -25 16 0
29 -27 20 -41 -3 -6 -1 -15 4 -22 13 -15 14 -107 1 -107 -4 0 -6 -13 -3 -28 6
-28 3 -31 -59 -60 -5 -2 -7 4 -5 14 2 14 -2 18 -19 17 -13 -2 -23 2 -23 7 0 6
7 10 16 10 20 0 47 27 39 40 -3 5 3 18 15 30 23 23 27 39 6 21 -8 -6 -20 -10
-27 -9 -9 2 -14 -7 -14 -26 -1 -29 -18 -46 -28 -29 -8 12 30 93 42 93 11 0 4
27 -12 48 -5 7 -11 29 -13 50 -2 26 -1 33 6 22 8 -13 11 -13 27 3 19 19 33 22
33 8z m-189 -84 c-8 -8 -11 -4 -11 14 0 33 14 47 18 19 2 -12 -1 -27 -7 -33z
m269 14 c0 -5 -7 -15 -16 -22 -14 -11 -16 -10 -13 6 2 11 0 26 -5 33 -7 11 -4
12 13 3 11 -7 21 -15 21 -20z m30 8 c0 -11 -4 -17 -10 -14 -5 3 -10 13 -10 21
0 8 5 14 10 14 6 0 10 -9 10 -21z m-400 -69 c0 -5 -4 -10 -10 -10 -5 0 -10 5
-10 10 0 6 5 10 10 10 6 0 10 -4 10 -10z m380 -20 c0 -5 -2 -10 -4 -10 -3 0
-8 5 -11 10 -3 6 -1 10 4 10 6 0 11 -4 11 -10z m-380 -35 c0 -8 -4 -15 -8 -15
-5 0 -9 7 -9 15 0 8 4 15 9 15 4 0 8 -7 8 -15z m-110 -65 c0 -25 -10 -50 -20
-50 -5 0 -6 9 -3 21 4 12 0 25 -8 30 -12 8 -12 10 1 18 18 12 30 5 30 -19z
m425 -50 c3 -6 -4 -10 -17 -10 -18 0 -20 2 -8 10 19 12 18 12 25 0z m-545 -25
c0 -8 -6 -15 -12 -15 -9 0 -8 -3 2 -10 10 -6 11 -12 5 -18 -6 -6 -17 -3 -28 8
-17 16 -17 19 -2 34 21 20 35 21 35 1z m-133 -17 c-4 -12 -1 -28 5 -35 7 -8 7
-13 0 -13 -14 0 -24 29 -17 51 9 27 19 24 12 -3z m721 -21 c-1 -31 -19 -67
-35 -67 -16 0 -17 12 -1 28 9 9 8 12 -5 12 -9 0 -17 7 -17 15 0 23 4 30 17 30
6 0 15 3 19 7 11 12 23 -1 22 -25z m-772 -42 c0 -14 -6 -25 -12 -25 -7 0 -9
10 -6 25 6 32 20 32 18 0z m26 -7 c-8 -8 -9 -4 -5 13 4 13 8 18 11 10 2 -7 -1
-18 -6 -23z m38 -16 c0 -10 -7 -27 -15 -38 -8 -10 -15 -31 -15 -46 0 -57 -26
-81 -27 -25 -1 36 14 95 30 115 14 18 27 15 27 -6z m210 14 c0 -3 -4 -8 -10
-11 -5 -3 -10 -1 -10 4 0 6 5 11 10 11 6 0 10 -2 10 -4z m-280 -46 c0 -5 -2
-10 -4 -10 -3 0 -8 5 -11 10 -3 6 -1 10 4 10 6 0 11 -4 11 -10z m597 -32 c-3
-8 -6 -5 -6 6 -1 11 2 17 5 13 3 -3 4 -12 1 -19z m235 -13 c3 -23 0 -35 -8
-35 -16 0 -24 46 -11 59 15 15 14 15 19 -24z m-25 -77 c-3 -7 -5 -2 -5 12 0
14 2 19 5 13 2 -7 2 -19 0 -25z m-210 -8 c-1 -11 -4 -20 -8 -20 -10 0 -20 30
-13 41 9 15 23 1 21 -21z m103 23 c0 -5 -4 -15 -10 -23 -11 -18 -25 -7 -17 15
6 15 27 21 27 8z m138 -17 c-7 -8 -15 -12 -17 -11 -5 6 10 25 20 25 5 0 4 -6
-3 -14z m-848 -15 c0 -6 -4 -13 -10 -16 -5 -3 -10 1 -10 9 0 9 5 16 10 16 6 0
10 -4 10 -9z m255 -77 c18 -43 18 -44 5 -44 -5 0 -10 9 -10 20 0 11 -4 20 -10
20 -5 0 -10 9 -10 20 0 30 8 24 25 -16z m255 -6 c0 -21 0 -21 -19 -2 -12 12
-14 21 -8 26 16 10 27 0 27 -24z m-159 6 c12 -14 11 -16 -5 -13 -11 2 -21 10
-24 17 -5 17 13 15 29 -4z m436 -6 c-3 -8 -6 -5 -6 6 -1 11 2 17 5 13 3 -3 4
-12 1 -19z m-303 -20 c11 -42 7 -55 -9 -34 -16 22 -20 56 -6 56 5 0 11 -10 15
-22z m-263 -22 c-6 -14 -15 -26 -21 -26 -6 0 -4 13 5 31 19 36 30 33 16 -5z
m166 2 c-3 -8 -6 -5 -6 6 -1 11 2 17 5 13 3 -3 4 -12 1 -19z m-203 -3 c-4 -8
-8 -15 -10 -15 -2 0 -4 7 -4 15 0 8 4 15 10 15 5 0 7 -7 4 -15z m176 4 c0 -9
-21 -13 -52 -11 -11 1 -18 -6 -19 -18 -1 -11 -2 -25 -3 -32 -1 -11 -46 -23
-46 -13 0 3 9 15 20 27 11 12 20 29 20 39 0 12 9 16 40 16 22 0 40 -4 40 -8z
m-270 -14 c0 -8 -4 -15 -10 -15 -5 0 -10 7 -10 15 0 8 5 15 10 15 6 0 10 -7
10 -15z m450 5 c0 -5 -4 -10 -10 -10 -5 0 -10 5 -10 10 0 6 5 10 10 10 6 0 10
-4 10 -10z m365 0 c3 -6 0 -13 -8 -16 -9 -3 -21 -19 -27 -35 -7 -16 -16 -26
-21 -24 -4 3 -3 18 3 33 22 50 39 64 53 42z m-451 -32 c-9 -14 -23 2 -17 18 4
12 8 13 14 3 4 -7 5 -17 3 -21z m396 28 c0 -11 -19 -15 -25 -6 -3 5 1 10 9 10
9 0 16 -2 16 -4z m-837 -24 c19 -20 12 -62 -9 -62 -8 0 -14 -6 -14 -14 0 -8
-6 -17 -12 -20 -7 -4 -4 -5 8 -2 18 3 20 -1 15 -23 -4 -19 -6 -21 -9 -8 -4 21
-28 17 -25 -4 3 -13 -35 -45 -42 -37 -1 2 0 23 4 48 6 40 8 43 18 25 12 -20
12 -20 13 2 0 12 -4 25 -10 28 -5 3 -10 14 -9 23 0 11 3 12 6 5 7 -18 23 -16
23 2 0 8 -4 15 -10 15 -5 0 -10 9 -10 20 0 26 40 27 63 2z m637 14 c0 -3 -4
-8 -10 -11 -5 -3 -10 -1 -10 4 0 6 5 11 10 11 6 0 10 -2 10 -4z m-300 -31 c0
-8 -4 -15 -10 -15 -5 0 -10 7 -10 15 0 8 5 15 10 15 6 0 10 -7 10 -15z m160
-10 c0 -9 -7 -27 -16 -40 -9 -14 -13 -25 -9 -25 3 0 -3 -13 -15 -30 -22 -31
-50 -31 -50 0 0 25 20 36 31 19 6 -9 7 -4 3 16 -4 17 -12 33 -18 37 -12 8 -10
10 19 26 29 16 55 15 55 -3z m-313 -31 c-3 -3 -12 -4 -19 -1 -8 3 -5 6 6 6 11
1 17 -2 13 -5z m463 -4 c0 -5 -5 -10 -11 -10 -5 0 -7 5 -4 10 3 6 8 10 11 10
2 0 4 -4 4 -10z m-580 -27 c0 -21 -3 -24 -9 -14 -5 8 -7 20 -4 28 8 21 13 15
13 -14z m230 12 c10 -12 10 -15 -4 -15 -9 0 -16 7 -16 15 0 8 2 15 4 15 2 0 9
-7 16 -15z m536 0 c-4 -24 -16 -30 -16 -7 0 12 4 22 9 22 5 0 8 -7 7 -15z
m-91 -5 c3 -5 -1 -10 -9 -10 -9 0 -16 5 -16 10 0 6 4 10 9 10 6 0 13 -4 16
-10z m-505 -40 c0 -5 -7 -10 -15 -10 -8 0 -15 5 -15 10 0 6 7 10 15 10 8 0 15
-4 15 -10z m7 -42 c-3 -8 -6 -5 -6 6 -1 11 2 17 5 13 3 -3 4 -12 1 -19z m583
7 c0 -8 -2 -15 -4 -15 -2 0 -6 7 -10 15 -3 8 -1 15 4 15 6 0 10 -7 10 -15z
m45 -23 c-22 -5 -27 1 -19 23 7 17 8 17 21 -1 12 -17 12 -19 -2 -22z m-868
-12 c-1 -43 -17 -57 -17 -16 0 24 9 56 16 56 1 0 2 -18 1 -40z m320 19 c-1
-12 -14 -27 -29 -35 -32 -16 -37 -34 -10 -34 14 -1 14 -3 -5 -19 -21 -18 -33
-49 -15 -37 4 2 14 1 21 -3 11 -7 9 -13 -8 -30 -11 -11 -21 -29 -21 -38 0 -13
3 -14 12 -5 7 7 16 12 21 12 5 0 1 -7 -7 -16 -9 -8 -16 -22 -16 -30 0 -8 -7
-14 -16 -14 -11 0 -15 6 -11 19 6 25 -17 35 -46 20 -18 -9 -20 -9 -10 2 9 9
10 16 2 26 -16 19 -3 43 22 40 12 -1 24 3 26 9 2 7 -8 9 -27 6 -16 -2 -30 0
-30 6 0 14 28 35 38 28 6 -3 9 2 8 12 -1 11 5 16 16 14 11 -2 16 4 15 15 0 10
7 30 17 46 22 33 56 37 53 6z m-366 -16 c-8 -15 -10 -15 -11 -2 0 17 10 32 18
25 2 -3 -1 -13 -7 -23z m425 15 c4 -6 2 -14 -4 -16 -7 -2 -12 -10 -12 -18 0
-8 -4 -14 -10 -14 -5 0 -10 4 -10 9 0 6 5 13 10 16 6 3 10 11 10 16 0 6 -5 7
-12 3 -7 -4 -8 -3 -4 4 9 15 23 15 32 0z m74 -11 c0 -16 -37 -39 -45 -28 -3 5
-2 16 1 25 7 19 44 22 44 3z m-267 -24 c3 -16 3 -30 0 -33 -6 -7 -33 31 -33
47 0 25 28 13 33 -14z m-143 -9 c0 -8 -4 -12 -10 -9 -5 3 -10 10 -10 16 0 5 5
9 10 9 6 0 10 -7 10 -16z m108 -34 c-1 -17 -5 -33 -11 -37 -6 -3 -6 -8 1 -12
5 -3 6 -15 1 -26 -6 -16 -8 -17 -8 -3 -1 9 -8 21 -17 26 -14 8 -14 10 0 25 9
8 16 22 16 30 0 12 9 27 16 27 1 0 2 -14 2 -30z m-248 6 c0 -8 -7 -16 -15 -20
-12 -4 -13 -2 -2 14 14 24 17 25 17 6z m490 0 c0 -17 -14 -29 -23 -20 -8 8 3
34 14 34 5 0 9 -6 9 -14z m-380 0 c0 -2 -7 -7 -16 -10 -8 -3 -12 -2 -9 4 6 10
25 14 25 6z m400 -25 c0 -6 -4 -12 -9 -15 -10 -7 -21 -61 -25 -126 -2 -24 -8
-46 -14 -48 -21 -7 -60 46 -54 73 5 28 4 27 26 19 8 -3 12 -12 10 -19 -3 -7
-1 -16 4 -19 5 -3 9 10 8 28 0 19 -4 32 -8 29 -13 -7 -9 12 5 26 9 11 9 12 0
7 -9 -5 -11 -2 -7 8 3 9 12 16 19 16 7 0 15 7 19 15 6 16 26 21 26 6z m440 -7
c0 -8 -4 -12 -10 -9 -5 3 -10 10 -10 16 0 5 5 9 10 9 6 0 10 -7 10 -16z m-100
-30 c0 -8 -4 -12 -10 -9 -5 3 -10 10 -10 16 0 5 5 9 10 9 6 0 10 -7 10 -16z
m-551 -108 c8 -10 9 -16 1 -21 -5 -3 -10 -1 -10 4 0 6 -3 10 -7 10 -17 -3 -24
2 -18 11 9 14 20 12 34 -4z m641 -40 c0 -14 5 -37 10 -52 9 -23 7 -31 -11 -50
-14 -15 -20 -31 -16 -44 6 -24 -10 -37 -26 -20 -9 10 -9 11 1 6 7 -4 12 -1 12
8 0 9 -4 16 -10 16 -17 0 -11 30 8 37 17 7 32 22 32 36 0 16 -33 6 -51 -15
-10 -13 -18 -17 -19 -10 0 6 -12 12 -26 12 -16 0 -24 5 -21 13 2 6 14 12 26
11 11 0 21 3 21 8 0 5 12 13 27 19 20 7 24 12 14 18 -16 10 -6 31 15 31 8 0
14 -10 14 -24z m-110 -16 c0 -11 -2 -20 -4 -20 -2 0 -6 9 -9 20 -3 11 -1 20 4
20 5 0 9 -9 9 -20z m-344 -37 c-7 -34 -10 -36 -25 -11 -7 11 -8 17 -2 13 7 -3
11 2 11 15 0 12 5 18 10 15 6 -3 8 -18 6 -32z m-140 -20 c-11 -11 -17 4 -9 23
7 18 8 18 11 1 2 -10 1 -21 -2 -24z m-346 -15 c0 -13 -4 -29 -9 -36 -6 -10
-11 -6 -19 16 -8 23 -7 32 1 36 22 9 27 6 27 -16z m130 -38 c-6 -10 -10 -37
-10 -59 0 -22 -5 -43 -10 -46 -6 -4 -8 -10 -5 -15 3 -4 -1 -10 -9 -13 -7 -3
-19 -35 -26 -71 -7 -36 -16 -64 -20 -61 -8 5 -1 49 24 140 9 32 16 79 16 102
0 30 5 45 15 49 8 4 15 14 16 23 0 11 3 8 10 -7 5 -15 5 -30 -1 -42z m130 50
c0 -5 -5 -10 -11 -10 -5 0 -7 5 -4 10 3 6 8 10 11 10 2 0 4 -4 4 -10z m80 -20
c0 -5 -2 -10 -4 -10 -3 0 -8 5 -11 10 -3 6 -1 10 4 10 6 0 11 -4 11 -10z m104
-9 c3 -5 -6 -11 -21 -14 -26 -5 -26 -4 -8 9 22 17 22 17 29 5z m82 -26 c7 -18
-13 -45 -33 -45 -10 0 -12 6 -7 23 l7 22 -23 -20 c-22 -20 -22 -20 -19 0 4 16
28 30 62 34 4 1 10 -6 13 -14z m195 -72 c-16 -29 -24 8 -9 43 l12 29 4 -27 c2
-15 -1 -35 -7 -45z m-381 42 c0 -8 -9 -15 -20 -15 -20 0 -26 11 -13 23 12 13
33 7 33 -8z m30 -58 c-7 -17 -9 -10 -9 28 1 43 2 46 9 22 5 -16 5 -38 0 -50z
m-379 40 c-6 -6 -11 -26 -11 -44 0 -33 -29 -102 -42 -103 -15 0 -8 58 8 71 11
9 14 22 9 45 -4 25 -2 35 12 42 21 12 39 4 24 -11z m256 -19 c-3 -8 -6 -5 -6
6 -1 11 2 17 5 13 3 -3 4 -12 1 -19z m53 -13 c0 -17 7 -25 23 -28 20 -4 20 -4
-3 -6 -15 0 -31 4 -38 11 -7 7 -12 8 -12 2 0 -5 5 -15 12 -22 6 -6 9 -14 6
-18 -12 -11 -26 31 -21 63 6 37 33 35 33 -2z m480 -12 c0 -22 -15 -39 -23 -26
-3 5 -2 23 0 42 4 23 8 29 14 20 5 -8 9 -24 9 -36z m-760 17 c0 -5 -5 -10 -11
-10 -5 0 -7 5 -4 10 3 6 8 10 11 10 2 0 4 -4 4 -10z m482 -125 c-2 -27 -5 -79
-7 -115 -4 -92 -4 -90 -18 -90 -7 0 -23 -9 -35 -20 -27 -25 -32 -25 -32 0 0
11 7 23 15 26 8 4 15 12 15 20 0 7 -6 11 -12 9 -7 -3 -19 7 -25 22 -14 30 -15
28 13 37 17 5 23 1 29 -16 l7 -23 7 25 c11 34 -4 60 -29 53 -13 -4 -20 0 -20
10 0 8 9 17 20 20 23 6 27 37 5 37 -17 0 -15 69 4 115 l12 30 28 -45 c22 -37
26 -54 23 -95z m-258 53 c-9 -14 -21 -9 -27 12 -3 11 -1 18 4 14 5 -3 9 5 10
18 1 20 2 19 9 -6 5 -16 7 -33 4 -38z m161 22 c3 -5 1 -10 -4 -10 -6 0 -11 5
-11 10 0 6 2 10 4 10 3 0 8 -4 11 -10z m435 -20 c0 -5 -4 -10 -10 -10 -5 0
-10 5 -10 10 0 6 5 10 10 10 6 0 10 -4 10 -10z m-460 -10 c0 -5 -5 -10 -11
-10 -5 0 -7 5 -4 10 3 6 8 10 11 10 2 0 4 -4 4 -10z m334 -15 c-4 -8 -8 -15
-10 -15 -2 0 -4 7 -4 15 0 8 4 15 10 15 5 0 7 -7 4 -15z m-307 -25 c-1 -11 -8
-22 -16 -25 -20 -8 -22 -2 -9 27 14 29 28 28 25 -2z m-110 4 c-9 -9 21 -36 33
-29 9 6 13 -6 13 -45 0 -8 -10 -35 -22 -60 l-22 -45 7 36 c4 24 1 47 -9 65
l-14 28 0 -28 c0 -15 -6 -33 -12 -39 -9 -9 -10 3 -5 48 4 33 12 63 18 67 13 9
22 10 13 2z m464 -56 c5 -40 0 -78 -9 -78 -4 0 -8 25 -8 55 -2 59 11 76 17 23z
m20 -11 c-8 -8 -11 -7 -11 4 0 20 13 34 18 19 3 -7 -1 -17 -7 -23z m-801 2 c0
-6 -4 -7 -10 -4 -5 3 -10 11 -10 16 0 6 5 7 10 4 6 -3 10 -11 10 -16z m61 -52
c-10 -9 -11 -8 -5 6 3 10 9 15 12 12 3 -3 0 -11 -7 -18z m159 -4 c25 -27 6
-83 -27 -83 -33 0 -27 34 7 39 24 3 24 4 -10 22 -22 11 -28 18 -17 19 9 0 17
5 17 10 0 15 11 12 30 -7z m338 -1 c2 -7 -3 -12 -12 -12 -9 0 -16 7 -16 16 0
17 22 14 28 -4z m-169 -58 c-14 -18 -24 -11 -15 11 3 9 11 13 16 10 8 -5 7
-11 -1 -21z m475 11 c-7 -16 -24 -21 -24 -6 0 8 7 13 27 20 1 1 0 -6 -3 -14z
m-135 -47 c-5 -18 -9 -34 -9 -35 0 -2 -5 -3 -11 -3 -8 0 -8 5 1 15 7 8 9 15 6
15 -4 0 -2 9 4 20 16 30 20 24 9 -12z m-399 8 c0 -8 -7 -16 -15 -20 -9 -3 -12
-12 -8 -22 4 -12 1 -15 -13 -12 -12 2 -18 11 -16 23 2 17 -2 15 -23 -9 l-26
-28 3 25 c5 33 10 38 50 47 48 11 48 11 48 -4z m-258 -48 c-9 -9 -12 -7 -12
12 0 19 3 21 12 12 9 -9 9 -15 0 -24z m778 -34 c0 -8 -5 -12 -10 -9 -6 4 -8
11 -5 16 9 14 15 11 15 -7z m-550 -29 c-7 -8 -16 -12 -21 -9 -13 8 -1 24 18
24 13 0 13 -3 3 -15z m193 -32 c-3 -21 -11 -44 -17 -52 -9 -12 -7 -13 8 -8 15
6 17 4 11 -10 -3 -10 -9 -30 -12 -44 -8 -42 -73 -61 -73 -22 0 9 8 22 18 29
15 11 12 12 -20 7 -21 -3 -39 -2 -39 3 -6 39 -5 54 3 54 4 0 14 11 20 25 6 14
19 25 29 25 9 0 19 6 22 13 3 9 7 9 19 -1 13 -10 17 -10 22 3 10 27 15 16 9
-22z m-158 -36 c0 -25 3 -48 7 -52 4 -4 -3 -16 -15 -26 -18 -16 -19 -18 -3
-13 16 6 17 4 8 -13 -8 -14 -8 -23 0 -31 9 -9 7 -17 -7 -32 -21 -23 -4 -28 19
-5 9 9 17 11 21 5 10 -16 25 -12 25 8 0 11 5 7 16 -13 22 -42 23 -42 46 -15
l20 25 -6 -31 c-3 -18 -2 -35 1 -38 4 -4 6 -26 4 -50 -2 -32 2 -47 14 -53 13
-7 15 -22 13 -69 -3 -54 -5 -59 -25 -57 -16 2 -23 -4 -25 -20 -2 -17 -10 -22
-31 -22 -28 -1 -50 -21 -44 -40 2 -5 10 -10 18 -10 7 0 17 -13 20 -30 4 -16 8
-27 9 -22 4 12 7 26 9 38 0 5 6 7 12 3 6 -3 9 -15 6 -25 -3 -10 -2 -21 3 -24
4 -2 5 -16 2 -30 -4 -21 -7 -23 -19 -14 -7 7 -11 19 -8 26 8 24 -19 9 -30 -15
-5 -12 -13 -22 -18 -22 -4 0 -6 4 -3 9 3 4 -3 16 -14 26 -11 10 -20 13 -20 8
0 -18 -25 -22 -44 -7 -16 11 -17 16 -6 29 7 8 16 13 20 10 5 -3 11 4 15 15 3
11 13 27 22 35 8 9 12 19 8 23 -4 4 -17 -5 -29 -20 -24 -31 -36 -35 -36 -14 0
7 -9 25 -20 39 -11 14 -20 28 -20 31 0 9 46 7 74 -4 14 -5 26 -8 26 -6 0 11
-41 45 -72 59 -43 20 -48 32 -15 41 36 9 47 7 41 -9 -4 -11 -2 -13 9 -9 10 3
18 -2 22 -16 5 -16 10 -19 18 -11 8 8 3 19 -17 40 -27 29 -28 29 -8 40 12 6
31 11 44 12 13 0 17 3 11 6 -7 2 -13 11 -13 19 0 8 -4 14 -10 14 -5 0 -10 -4
-10 -10 0 -5 -7 -10 -15 -10 -8 0 -15 -5 -15 -11 0 -5 -5 -7 -12 -3 -8 5 -6
11 6 20 10 7 15 18 11 24 -5 9 -10 9 -18 1 -14 -14 -30 -14 -22 -1 3 6 1 10
-4 10 -20 0 -11 15 16 28 37 17 42 15 52 -10 8 -21 10 -21 16 -5 8 20 -39 75
-49 58 -11 -17 -36 0 -36 24 0 12 7 28 15 35 12 10 13 16 4 26 -9 11 -8 14 2
14 10 0 10 3 1 12 -15 15 -15 56 0 113 15 57 33 53 33 -8z m482 -9 c-3 -8 -6
-5 -6 6 -1 11 2 17 5 13 3 -3 4 -12 1 -19z m-937 -48 c0 -5 -5 -10 -11 -10 -5
0 -7 5 -4 10 3 6 8 10 11 10 2 0 4 -4 4 -10z m30 -82 c0 -5 -9 -8 -20 -8 -23
0 -26 10 -8 28 9 9 14 9 20 -1 4 -6 8 -15 8 -19z m590 -4 c0 -8 -4 -12 -10 -9
-5 3 -10 10 -10 16 0 5 5 9 10 9 6 0 10 -7 10 -16z m-414 -41 c-11 -11 -17 4
-9 23 7 18 8 18 11 1 2 -10 1 -21 -2 -24z m354 27 c0 -5 -7 -10 -16 -10 -8 0
-12 5 -9 10 3 6 10 10 16 10 5 0 9 -4 9 -10z m-527 -33 c-3 -5 -10 -4 -15 1
-6 6 -7 16 -3 22 6 9 9 9 16 -1 4 -7 5 -17 2 -22z m307 -26 c0 -6 -4 -13 -10
-16 -5 -3 -10 1 -10 9 0 9 5 16 10 16 6 0 10 -4 10 -9z m320 -65 c0 -8 3 -21
6 -30 4 -11 1 -16 -10 -16 -11 0 -16 9 -16 30 0 17 5 30 10 30 6 0 10 -6 10
-14z m-620 -46 c0 -5 -5 -10 -11 -10 -5 0 -7 5 -4 10 3 6 8 10 11 10 2 0 4 -4
4 -10z m360 -114 c0 -3 -4 -8 -10 -11 -5 -3 -10 -1 -10 4 0 6 5 11 10 11 6 0
10 -2 10 -4z m457 -31 c8 -22 -6 -33 -17 -15 -13 20 -12 30 0 30 6 0 13 -7 17
-15z m-147 -133 c0 -10 -5 -23 -12 -30 -9 -9 -9 -12 3 -12 17 -1 -18 -30 -36
-30 -18 0 -43 23 -50 49 -7 23 -6 23 29 17 28 -5 38 -3 42 9 8 21 24 19 24 -3z
m-328 -16 c4 -18 -1 -27 -19 -35 -30 -14 -43 -14 -23 -1 13 8 12 10 -2 10 -10
0 -18 6 -18 14 0 24 18 28 25 6 7 -20 25 -28 25 -10 0 6 -4 10 -10 10 -5 0 -7
7 -4 15 9 22 21 18 26 -9z m408 -37 c0 -6 -4 -7 -10 -4 -5 3 -10 11 -10 16 0
6 5 7 10 4 6 -3 10 -11 10 -16z m-470 -15 c0 -16 30 -15 42 1 10 14 9 -25 -2
-50 -8 -18 -9 -18 -10 5 -2 16 -4 19 -7 9 -4 -17 -40 -32 -47 -21 -3 5 -1 60
3 80 2 10 21 -12 21 -24z m162 -8 c8 5 9 2 5 -10 -8 -20 14 -46 38 -46 9 0 15
-6 12 -12 -2 -7 -8 -12 -13 -11 -5 1 -14 -9 -21 -23 -6 -13 -7 -24 -2 -24 5 0
9 5 9 10 0 6 5 10 10 10 6 0 10 -7 10 -15 0 -8 -6 -15 -12 -15 -10 0 -9 -3 1
-9 11 -7 9 -10 -8 -16 -14 -4 -21 -15 -21 -32 0 -18 4 -24 15 -19 22 8 18 -12
-5 -24 -12 -6 -20 -21 -20 -35 0 -14 -4 -25 -10 -25 -5 0 -10 9 -10 20 0 13
-7 20 -20 20 -11 0 -20 -7 -20 -15 0 -21 -13 -19 -28 5 -10 17 -9 26 5 53 9
17 16 38 14 45 -1 8 7 16 18 19 22 6 28 27 11 38 -5 3 -10 22 -10 41 0 21 -5
33 -12 32 -13 -3 -22 26 -14 47 4 12 10 12 35 -1 17 -9 36 -12 43 -8z m446 -7
c-2 -6 -8 -10 -13 -10 -5 0 -11 4 -13 10 -2 6 4 11 13 11 9 0 15 -5 13 -11z
m-680 -46 c-5 -25 -28 -28 -28 -4 0 12 6 21 16 21 9 0 14 -7 12 -17z m645 0
c-3 -7 0 -13 6 -13 6 0 11 5 11 10 0 6 5 10 11 10 5 0 7 -5 3 -12 -4 -7 -7
-27 -6 -45 2 -19 -2 -33 -9 -33 -6 0 -9 7 -5 15 3 8 1 15 -4 15 -6 0 -10 7
-10 15 0 8 -6 15 -14 15 -9 0 -12 7 -9 18 2 10 10 19 18 19 7 0 11 -6 8 -14z
m-488 -61 c-6 -16 -7 -16 -16 1 -8 13 -7 23 3 34 12 15 13 15 16 -1 2 -9 1
-25 -3 -34z m-108 -17 c-7 -16 -37 -21 -37 -5 0 10 32 31 39 25 2 -2 1 -11 -2
-20z m563 6 c0 -5 -9 -19 -20 -32 l-20 -24 11 33 c10 29 29 45 29 23z m157
-26 c-9 -19 -13 -21 -15 -9 -3 13 12 33 25 34 0 0 -4 -11 -10 -25z m19 -50
c-3 -8 -10 -15 -15 -15 -7 0 -6 10 1 26 12 26 25 16 14 -11z m44 -4 c5 -19 5
-31 -1 -31 -5 0 -9 -9 -9 -20 0 -11 -7 -20 -15 -20 -20 0 -19 29 2 52 9 10 11
18 5 18 -5 0 -8 9 -5 20 7 25 11 22 23 -19z m-730 9 c0 -5 -2 -10 -4 -10 -3 0
-8 5 -11 10 -3 6 -1 10 4 10 6 0 11 -4 11 -10z m420 -14 c0 -3 -4 -8 -10 -11
-5 -3 -10 -1 -10 4 0 6 5 11 10 11 6 0 10 -2 10 -4z m57 -22 c2 -13 1 -15 -4
-4 -3 8 -11 19 -17 23 -7 6 -6 7 4 4 8 -2 16 -12 17 -23z m158 6 c-3 -5 -12
-10 -18 -10 -7 0 -6 4 3 10 19 12 23 12 15 0z m-453 -22 c-7 -7 -12 -29 -12
-51 0 -23 -4 -36 -10 -32 -12 7 -53 -19 -43 -28 8 -8 -17 -87 -27 -87 -4 0
-11 20 -14 44 -5 32 -13 47 -27 51 -12 4 -19 15 -19 31 0 17 4 23 12 18 6 -4
29 -9 50 -10 36 -3 41 0 53 29 15 36 24 47 39 47 6 0 5 -5 -2 -12z m266 -42
c0 -22 -2 -23 -15 -10 -8 8 -12 21 -9 30 8 22 24 9 24 -20z m322 -16 c0 -5 -5
-10 -11 -10 -5 0 -7 5 -4 10 3 6 8 10 11 10 2 0 4 -4 4 -10z m-230 -30 c0 -5
-2 -10 -4 -10 -3 0 -8 5 -11 10 -3 6 -1 10 4 10 6 0 11 -4 11 -10z m-380 -24
c0 -8 -4 -17 -9 -21 -12 -7 -24 12 -16 25 9 15 25 12 25 -4z m614 -1 c-4 -8
-8 -15 -10 -15 -2 0 -4 7 -4 15 0 8 4 15 10 15 5 0 7 -7 4 -15z m-334 -25 c0
-5 -5 -10 -11 -10 -5 0 -7 5 -4 10 3 6 8 10 11 10 2 0 4 -4 4 -10z m116 -36
c-5 -18 -10 -24 -17 -17 -7 7 -7 17 2 31 17 27 23 20 15 -14z"/>
<path d="M4791 9894 c0 -11 3 -14 6 -6 3 7 2 16 -1 19 -3 4 -6 -2 -5 -13z"/>
<path d="M4791 9774 c0 -11 3 -14 6 -6 3 7 2 16 -1 19 -3 4 -6 -2 -5 -13z"/>
<path d="M5215 9511 c-3 -5 -1 -12 5 -16 5 -3 10 1 10 9 0 18 -6 21 -15 7z"/>
<path d="M4620 9377 c0 -8 7 -18 16 -21 11 -4 14 -1 12 11 -4 21 -28 30 -28
10z"/>
<path d="M5911 9004 c0 -11 3 -14 6 -6 3 7 2 16 -1 19 -3 4 -6 -2 -5 -13z"/>
<path d="M5773 8040 c0 -17 5 -29 11 -27 6 2 11 14 11 27 0 13 -5 25 -11 27
-6 2 -11 -10 -11 -27z"/>
<path d="M5380 7785 c0 -8 4 -15 9 -15 5 0 11 7 15 15 3 9 0 15 -9 15 -8 0
-15 -7 -15 -15z"/>
<path d="M5984 7664 c-56 -27 -85 -67 -87 -117 -2 -56 22 -87 67 -87 24 0 44
11 78 44 26 24 59 48 75 53 15 5 30 18 31 27 7 32 -71 96 -115 96 -10 0 -32
-7 -49 -16z m96 -19 c40 -21 58 -55 35 -67 -9 -6 -41 -30 -71 -54 -60 -49 -91
-55 -122 -21 -18 19 -20 28 -12 56 11 40 26 59 65 83 37 22 67 23 105 3z"/>
<path d="M6000 7604 c0 -10 -7 -14 -22 -12 -19 3 -24 -2 -26 -30 -3 -28 0 -33
15 -30 12 2 17 11 15 26 -3 20 0 22 21 17 25 -7 44 16 31 36 -9 15 -34 10 -34
-7z"/>
<path d="M9111 7250 c-12 -7 -12 -11 -2 -24 7 -8 11 -19 8 -23 -2 -4 -1 -17 4
-28 7 -19 8 -19 8 1 1 12 9 25 19 29 15 6 15 8 1 18 -9 7 -18 17 -20 24 -3 8
-9 9 -18 3z"/>
<path d="M9160 7240 c0 -5 5 -10 10 -10 6 0 10 5 10 10 0 6 -4 10 -10 10 -5 0
-10 -4 -10 -10z"/>
<path d="M9176 7209 c-10 -10 -15 -22 -11 -28 8 -14 35 -14 35 -1 0 6 -3 9 -7
9 -22 -4 -25 3 -7 15 10 8 17 16 14 19 -3 2 -13 -4 -24 -14z"/>
<path d="M5412 7409 c-54 -11 -57 -22 -23 -69 21 -30 31 -55 31 -80 0 -49 32
-90 70 -90 45 0 90 51 90 102 0 97 -74 157 -168 137z m109 -36 c48 -29 63
-112 28 -157 -20 -26 -61 -35 -85 -18 -18 12 -34 49 -34 79 0 15 -9 43 -20 61
-11 18 -18 37 -15 43 10 15 95 10 126 -8z"/>
<path d="M5473 7325 c-3 -9 2 -22 13 -29 15 -11 16 -17 6 -29 -21 -25 7 -33
31 -9 19 19 19 22 4 28 -9 3 -17 17 -17 30 0 27 -27 33 -37 9z"/>
<path d="M9301 6414 c0 -11 3 -14 6 -6 3 7 2 16 -1 19 -3 4 -6 -2 -5 -13z"/>
<path d="M9105 6381 c-3 -5 -1 -12 5 -16 5 -3 10 1 10 9 0 18 -6 21 -15 7z"/>
<path d="M9116 6293 c-6 -14 -5 -15 5 -6 7 7 10 15 7 18 -3 3 -9 -2 -12 -12z"/>
<path d="M9197 4853 c-2 -5 0 -21 4 -38 l7 -30 1 29 c1 28 2 28 14 11 10 -13
16 -15 21 -6 4 6 2 18 -4 26 -13 16 -36 20 -43 8z"/>
<path d="M9250 4790 c0 -11 5 -20 10 -20 6 0 10 9 10 20 0 11 -4 20 -10 20 -5
0 -10 -9 -10 -20z"/>
<path d="M9225 4790 c3 -5 8 -10 11 -10 2 0 4 5 4 10 0 6 -5 10 -11 10 -5 0
-7 -4 -4 -10z"/>
<path d="M9240 4730 c0 -5 5 -10 10 -10 6 0 10 5 10 10 0 6 -4 10 -10 10 -5 0
-10 -4 -10 -10z"/>
<path d="M9200 4700 c0 -5 5 -10 11 -10 5 0 7 5 4 10 -3 6 -8 10 -11 10 -2 0
-4 -4 -4 -10z"/>
<path d="M9220 4630 c0 -7 24 -20 36 -20 13 0 1 19 -16 23 -11 3 -20 2 -20 -3z"/>
<path d="M9230 4550 c0 -5 5 -10 10 -10 6 0 10 5 10 10 0 6 -4 10 -10 10 -5 0
-10 -4 -10 -10z"/>
<path d="M9281 4464 c0 -11 3 -14 6 -6 3 7 2 16 -1 19 -3 4 -6 -2 -5 -13z"/>
<path d="M9200 4122 c0 -30 30 -96 39 -86 13 14 22 92 12 99 -5 3 -13 1 -16
-5 -5 -8 -11 -7 -21 1 -11 9 -14 8 -14 -9z"/>
<path d="M9410 4510 c0 -5 7 -10 16 -10 8 0 12 5 9 10 -3 6 -10 10 -16 10 -5
0 -9 -4 -9 -10z"/>
<path d="M8857 4226 c-6 -16 2 -28 14 -20 12 7 11 34 0 34 -5 0 -11 -6 -14
-14z"/>
<path d="M8831 4164 c0 -11 3 -14 6 -6 3 7 2 16 -1 19 -3 4 -6 -2 -5 -13z"/>
<path d="M9169 3436 c-4 -49 6 -62 17 -21 5 21 12 25 45 25 21 0 39 4 39 9 0
15 -19 23 -32 14 -16 -10 -51 -4 -59 9 -4 6 -8 -10 -10 -36z"/>
<path d="M9220 3394 c0 -8 5 -12 10 -9 6 3 10 10 10 16 0 5 -4 9 -10 9 -5 0
-10 -7 -10 -16z"/>
<path d="M8955 3098 c3 -17 1 -28 -5 -28 -6 0 -8 -5 -4 -11 12 -21 25 17 14
43 -10 22 -10 22 -5 -4z"/>
<path d="M8900 1460 c0 -5 5 -10 11 -10 5 0 7 5 4 10 -3 6 -8 10 -11 10 -2 0
-4 -4 -4 -10z"/>
<path d="M8960 1103 c0 -5 11 -9 25 -9 14 -1 25 2 25 7 0 5 -11 9 -25 9 -14 0
-25 -3 -25 -7z"/>
<path d="M8986 791 c-4 -7 -5 -15 -2 -18 9 -9 19 4 14 18 -4 11 -6 11 -12 0z"/>
<path d="M8987 743 c-4 -3 -7 -17 -7 -30 0 -19 3 -21 13 -12 7 7 13 21 13 31
0 19 -8 23 -19 11z"/>
<path d="M9540 9271 c0 -5 9 -11 20 -14 24 -6 27 8 4 17 -21 8 -24 8 -24 -3z"/>
<path d="M9588 9212 c-3 -9 -1 -26 3 -37 6 -15 8 -11 8 18 1 40 -4 48 -11 19z"/>
<path d="M9579 2778 c-6 -27 -4 -68 4 -65 13 4 20 67 7 67 -6 0 -10 -1 -11 -2z"/>
<path d="M9586 2391 c-4 -7 -5 -15 -2 -18 9 -9 19 4 14 18 -4 11 -6 11 -12 0z"/>
</g>
</svg>
